<svg xmlns="http://www.w3.org/2000/svg" fill="none" viewBox="0 0 152 32"><g fill="#fff" clip-path="url(#a)"><path d="m14.406 22.185-2.195 2.194a1.028 1.028 0 1 0 1.455 1.454l2.194-2.192a1.028 1.028 0 1 0-1.454-1.455v-.001ZM11.199 20.804a1.03 1.03 0 0 0-1.455 0L3.89 26.658a1.029 1.029 0 0 0 1.455 1.453l5.854-5.854c.402-.4.402-1.05 0-1.453ZM1.756 19.616l3.134-3.133a1.028 1.028 0 1 0-1.454-1.454L.3 18.163a1.028 1.028 0 1 0 1.454 1.453ZM1.826 13.51l6.797-6.797A1.028 1.028 0 0 0 7.169 5.26L.371 12.057a1.028 1.028 0 0 0 1.454 1.453ZM7.295 11.173 6.087 12.38a1.028 1.028 0 1 0 1.454 1.455l1.208-1.21a1.028 1.028 0 1 0-1.454-1.455v.002ZM1.903 22.605a1.028 1.028 0 1 0 1.454 1.455l6.46-6.46a1.028 1.028 0 1 0-1.454-1.455l-6.46 6.46ZM24.462 18.165l-1.207 1.207a1.028 1.028 0 1 0 1.454 1.454l1.208-1.208a1.028 1.028 0 0 0-1.454-1.453h-.002ZM23.38 26.74a1.026 1.026 0 0 0 1.454 0l6.797-6.796a1.028 1.028 0 0 0-1.454-1.453l-6.797 6.797a1.028 1.028 0 0 0 0 1.454v-.001ZM18.34 6.166 16.144 8.36A1.028 1.028 0 0 0 17.6 9.813l2.195-2.194a1.028 1.028 0 1 0-1.455-1.454v.001ZM20.281 22.346l-7.898 7.897a1.028 1.028 0 0 0 1.454 1.453l7.898-7.897a1.028 1.028 0 0 0-1.454-1.453ZM27.11 15.516a1.028 1.028 0 1 0 1.454 1.455l3.133-3.133a1.028 1.028 0 1 0-1.454-1.455l-3.133 3.135v-.002ZM22.44 4.97l1.617-1.616a1.028 1.028 0 1 0-1.455-1.455l-1.617 1.617a1.028 1.028 0 1 0 1.454 1.455ZM20.2 11.8c.402.4 1.054.4 1.454 0l5.854-5.855a1.028 1.028 0 1 0-1.454-1.454L20.2 10.345a1.028 1.028 0 0 0 0 1.454ZM22.188 15.856c.402.4 1.053.4 1.455 0l6.46-6.46a1.028 1.028 0 1 0-1.455-1.455l-6.46 6.46a1.028 1.028 0 0 0 0 1.455ZM20.387 28.282l-1.894 1.894a1.028 1.028 0 1 0 1.454 1.454l1.894-1.894a1.028 1.028 0 1 0-1.454-1.454ZM10.266 9.651a1.028 1.028 0 0 0 1.455 0l7.896-7.896A1.028 1.028 0 1 0 18.163.3l-7.897 7.898a1.028 1.028 0 0 0 0 1.455V9.65ZM9.56 27.028l-1.618 1.617a1.028 1.028 0 0 0 1.454 1.453l1.616-1.616a1.028 1.028 0 1 0-1.454-1.454h.001ZM11.62 3.717l1.893-1.894A1.028 1.028 0 0 0 12.059.37l-1.894 1.894a1.028 1.028 0 1 0 1.454 1.454v-.001ZM47.454 24.334c-1.184 0-2.248-.24-3.192-.72a5.4 5.4 0 0 1-2.232-2.088c-.544-.912-.816-2.008-.816-3.288v-.384c0-1.28.272-2.376.816-3.288a5.4 5.4 0 0 1 2.232-2.088c.944-.48 2.008-.72 3.192-.72 1.184 0 2.248.24 3.192.72a5.4 5.4 0 0 1 2.232 2.088c.544.912.816 2.008.816 3.288v.384c0 1.28-.272 2.376-.816 3.288a5.4 5.4 0 0 1-2.232 2.088c-.944.48-2.008.72-3.192.72Zm0-2.688c.928 0 1.696-.296 2.304-.888.608-.608.912-1.472.912-2.592v-.24c0-1.12-.304-1.976-.912-2.568-.592-.608-1.36-.912-2.304-.912-.928 0-1.696.304-2.304.912-.608.592-.912 1.448-.912 2.568v.24c0 1.12.304 1.984.912 2.592.608.592 1.376.888 2.304.888Zm8.312 2.352V12.094h2.976v1.296h.432c.208-.4.552-.744 1.032-1.032.48-.304 1.112-.456 1.896-.456.848 0 1.528.168 2.04.504.512.32.904.744 1.176 1.272h.432a3.508 3.508 0 0 1 1.152-1.272c.496-.336 1.2-.504 2.112-.504.736 0 1.4.16 1.992.48.608.304 1.088.776 1.44 1.416.368.624.552 1.416.552 2.376v7.824h-3.024V16.39c0-.656-.168-1.144-.504-1.464-.336-.336-.808-.504-1.416-.504-.688 0-1.224.224-1.608.672-.368.432-.552 1.056-.552 1.872v7.032H62.87V16.39c0-.656-.168-1.144-.504-1.464-.336-.336-.808-.504-1.416-.504-.688 0-1.224.224-1.608.672-.368.432-.552 1.056-.552 1.872v7.032h-3.024Zm19.764 0V12.094h2.976v1.56h.432c.192-.416.552-.808 1.08-1.176.528-.384 1.328-.576 2.4-.576.928 0 1.736.216 2.424.648.704.416 1.248 1 1.632 1.752.384.736.576 1.6.576 2.592v7.104h-3.024v-6.864c0-.896-.224-1.568-.672-2.016-.432-.448-1.056-.672-1.872-.672-.928 0-1.648.312-2.16.936-.512.608-.768 1.464-.768 2.568v6.048H75.53Zm14.07 0V12.094h3.023v11.904H89.6Zm1.511-13.296a1.987 1.987 0 0 1-1.392-.528c-.368-.352-.552-.816-.552-1.392s.184-1.04.552-1.392a1.987 1.987 0 0 1 1.392-.528c.56 0 1.024.176 1.392.528.368.352.552.816.552 1.392s-.184 1.04-.552 1.392c-.368.352-.832.528-1.392.528Zm9.087 13.632c-1.552 0-2.824-.336-3.816-1.008-.992-.672-1.592-1.632-1.8-2.88l2.784-.72c.112.56.296 1 .552 1.32.272.32.6.552.984.696.4.128.832.192 1.296.192.704 0 1.224-.12 1.56-.36.336-.256.504-.568.504-.936a.923.923 0 0 0-.48-.84c-.32-.208-.832-.376-1.536-.504l-.672-.12a12.744 12.744 0 0 1-2.28-.648c-.688-.288-1.24-.68-1.656-1.176-.416-.496-.624-1.136-.624-1.92 0-1.184.432-2.088 1.296-2.712.864-.64 2-.96 3.408-.96 1.328 0 2.432.296 3.312.888.88.592 1.456 1.368 1.728 2.328l-2.808.864c-.128-.608-.392-1.04-.792-1.296-.384-.256-.864-.384-1.44-.384s-1.016.104-1.32.312a.912.912 0 0 0-.456.816c0 .384.16.672.48.864.32.176.752.312 1.296.408l.672.12c.896.16 1.704.376 2.424.648.736.256 1.312.632 1.728 1.128.432.48.648 1.136.648 1.968 0 1.248-.456 2.216-1.368 2.904-.896.672-2.104 1.008-3.624 1.008Zm7.882-.336-1.68-11.904h3l1.056 9.864h.432l1.536-9.864h4.848l1.536 9.864h.432l1.056-9.864h3l-1.68 11.904H116.6l-1.536-9.864h-.432l-1.536 9.864h-5.016Zm20.836.336c-.848 0-1.608-.144-2.28-.432a3.91 3.91 0 0 1-1.608-1.296c-.384-.576-.576-1.272-.576-2.088 0-.816.192-1.496.576-2.04.4-.56.944-.976 1.632-1.248.704-.288 1.504-.432 2.4-.432h3.264v-.672c0-.56-.176-1.016-.528-1.368-.352-.368-.912-.552-1.68-.552-.752 0-1.312.176-1.68.528-.368.336-.608.776-.72 1.32l-2.784-.936c.192-.608.496-1.16.912-1.656.432-.512 1-.92 1.704-1.224.72-.32 1.592-.48 2.616-.48 1.568 0 2.808.392 3.72 1.176.912.784 1.368 1.92 1.368 3.408v4.44c0 .48.224.72.672.72h.96v2.496h-2.016c-.592 0-1.08-.144-1.464-.432a1.368 1.368 0 0 1-.576-1.152v-.024h-.456c-.064.192-.208.448-.432.768-.224.304-.576.576-1.056.816-.48.24-1.136.36-1.968.36Zm.528-2.448c.848 0 1.536-.232 2.064-.696.544-.48.816-1.112.816-1.896v-.24h-3.048c-.56 0-1 .12-1.32.36-.32.24-.48.576-.48 1.008 0 .432.168.784.504 1.056.336.272.824.408 1.464.408Zm8.931 6.912V12.094h2.976v1.44h.432c.272-.464.696-.872 1.272-1.224.576-.368 1.4-.552 2.472-.552.96 0 1.848.24 2.664.72.816.464 1.472 1.152 1.968 2.064.496.912.744 2.016.744 3.312v.384c0 1.296-.248 2.4-.744 3.312-.496.912-1.152 1.608-1.968 2.088a5.298 5.298 0 0 1-2.664.696c-.72 0-1.328-.088-1.824-.264-.48-.16-.872-.368-1.176-.624a4.504 4.504 0 0 1-.696-.816h-.432v6.168h-3.024Zm6.24-7.104c.944 0 1.72-.296 2.328-.888.624-.608.936-1.488.936-2.64v-.24c0-1.152-.312-2.024-.936-2.616-.624-.608-1.4-.912-2.328-.912-.928 0-1.704.304-2.328.912-.624.592-.936 1.464-.936 2.616v.24c0 1.152.312 2.032.936 2.64.624.592 1.4.888 2.328.888Z"/></g><defs><clipPath id="a"><path fill="#fff" d="M0 0h151.999v31.997H0z"/></clipPath></defs></svg>