<svg xmlns="http://www.w3.org/2000/svg" fill="none" viewBox="0 0 44 44"><g clip-path="url(#a)"><path fill="#0D1E30" d="M22 44c12.15 0 22-9.85 22-22S34.15 0 22 0 0 9.85 0 22s9.85 22 22 22Z"/><g filter="url(#b)"><path fill="#000" d="M21.621 8.332c.659-.34 1.463.445 1.114 1.093-.205.528-.976.668-1.37.265-.416-.385-.28-1.15.256-1.36v.002Zm-7.088.75c.4-.162.908.199.866.629.042.465-.536.809-.944.587-.54-.206-.479-1.07.078-1.215M29.05 10.31c-.625-.075-.724-1.043-.123-1.238.467-.223.896.197.965.633-.1.37-.415.712-.842.605M16.146 12.05c.67-.417 1.624.203 1.52.97-.034.77-1.076 1.219-1.664.696-.57-.41-.483-1.35.144-1.666Zm10.216.443c.299-.757 1.509-.781 1.848-.044.337.573-.077 1.284-.675 1.48-.793.145-1.545-.7-1.173-1.436Zm-5.595 1.393c-.006-.652.596-1.136 1.224-1.182.418.083.872.258 1.05.671.335.572.038 1.358-.563 1.62-.275.151-.602.095-.902.077-.458-.22-.844-.656-.809-1.186Zm-10.54.948c.611-.37 1.437.303 1.204.957-.126.565-.9.795-1.34.435-.472-.338-.398-1.151.137-1.393l-.001.001Zm22.635-.002c.518-.396 1.375.059 1.312.702.035.587-.706 1.031-1.22.729-.566-.252-.626-1.11-.092-1.43v-.001Zm-9.13 1.17c.855-.303 1.873.059 2.36.81.643.918.302 2.315-.698 2.842-1.034.623-2.545.096-2.928-1.043-.434-1.017.199-2.29 1.264-2.61h.002Zm-5.023.1c.949-.44 2.226-.071 2.684.883.539.93.122 2.223-.841 2.703-.966.54-2.328.13-2.794-.866-.524-.965-.06-2.276.951-2.72m-5.028 1.69c.073-.6.649-.993 1.23-1.034a1.348 1.348 0 0 1 1.197 1.178c-.042.62-.527 1.221-1.193 1.219-.732.061-1.375-.656-1.234-1.363m14.852-.902c.752-.43 1.796.195 1.763 1.045.051.9-1.104 1.534-1.852 1.006-.778-.44-.718-1.677.09-2.051m-11.867 3.172c.877-.238 1.884.17 2.314.964.472.8.28 1.911-.454 2.5-.941.86-2.675.514-3.176-.66-.576-1.077.124-2.52 1.315-2.805l.001.001Zm9.525-.004c.854-.24 1.857.082 2.317.848.607.876.317 2.184-.586 2.748-.949.655-2.415.312-2.937-.714-.633-1.06.004-2.559 1.206-2.882m-15.18.998c.759-.282 1.6.542 1.292 1.283-.187.674-1.153.924-1.652.426-.585-.467-.369-1.505.36-1.709m20.582 1.075a1.15 1.15 0 0 1 1.084-1.201c.52.082 1.025.495.984 1.052.048.735-.852 1.234-1.49.89-.299-.15-.451-.452-.578-.74Zm-24.315-.71c.456-.196 1.021.193.917.693-.025.565-.873.783-1.184.31-.275-.328-.11-.833.267-1.003Zm28.805-.011c.321-.225.838-.064.965.306.216.404-.18.957-.642.89-.65.058-.858-.915-.323-1.196Zm-16.936 2.712c1.201-.306 2.494.68 2.502 1.898.077 1.23-1.196 2.32-2.425 2.038-.952-.152-1.699-1.054-1.667-1.998-.003-.905.69-1.746 1.59-1.938m4.76 0c1.22-.336 2.55.667 2.531 1.913.065 1.207-1.169 2.262-2.373 2.021-1.134-.143-1.97-1.368-1.654-2.451.16-.72.773-1.307 1.496-1.485v.001Zm-9.18.748c.845-.141 1.637.784 1.294 1.573-.25.842-1.493 1.069-2.043.383-.643-.66-.162-1.865.75-1.956m13.961.038c.754-.311 1.678.33 1.62 1.134.03.884-1.111 1.495-1.847.978-.834-.464-.682-1.83.227-2.112m3.902 3.85c-.294-.54.241-1.257.853-1.157.302-.005.516.23.71.428.04.32.107.702-.164.949-.367.457-1.2.327-1.399-.22M10.224 27.75c.57-.373 1.391.184 1.262.839-.069.581-.811.913-1.3.583-.524-.299-.505-1.15.038-1.422m11.265 1.214c.747-.323 1.698.316 1.627 1.125.055.894-1.12 1.512-1.85.976-.812-.46-.676-1.816.223-2.1m-5.216 1.197c.635-.329 1.487.24 1.43.94.019.575-.55 1.065-1.128.98-.477-.01-.788-.432-.942-.833.008-.435.191-.92.64-1.086v-.001Zm10.568.01c.654-.398 1.584.174 1.522.922.016.784-1.034 1.284-1.643.77-.589-.403-.517-1.37.12-1.691Zm1.838 4.47c-.291-.432.051-.953.523-1.052.38.075.783.357.702.789-.055.587-.927.766-1.225.264v-.001Zm-14.59-.376c.115-.344.396-.683.807-.594.598.041.776.93.252 1.203-.47.312-1.018-.115-1.059-.609Zm7.04.395c.114-.509.781-.755 1.221-.486.291.124.377.443.451.715-.04.142-.076.284-.11.427-.18.209-.412.42-.712.412-.557.065-1.06-.555-.851-1.068h.001Z"/></g><path fill="#fff" d="M21.621 8.332c.659-.34 1.463.445 1.114 1.093-.205.528-.976.668-1.37.265-.416-.385-.28-1.15.256-1.36v.002Zm-7.088.75c.4-.162.908.199.866.629.042.465-.536.809-.944.587-.54-.206-.479-1.07.078-1.215M29.05 10.31c-.625-.075-.724-1.043-.123-1.238.467-.223.896.197.965.633-.1.37-.415.712-.842.605M16.146 12.05c.67-.417 1.624.203 1.52.97-.034.77-1.076 1.219-1.664.696-.57-.41-.483-1.35.144-1.666Zm10.216.443c.299-.757 1.509-.781 1.848-.044.337.573-.077 1.284-.675 1.48-.793.145-1.545-.7-1.173-1.436Zm-5.595 1.393c-.006-.652.596-1.136 1.224-1.182.418.083.872.258 1.05.671.335.572.038 1.358-.563 1.62-.275.151-.602.095-.902.077-.458-.22-.844-.656-.809-1.186Zm-10.54.948c.611-.37 1.437.303 1.204.957-.126.565-.9.795-1.34.435-.472-.338-.398-1.151.137-1.393l-.001.001Zm22.635-.002c.518-.396 1.375.059 1.312.702.035.587-.706 1.031-1.22.729-.566-.252-.626-1.11-.092-1.43v-.001Zm-9.13 1.17c.855-.303 1.873.059 2.36.81.643.918.302 2.315-.698 2.842-1.034.623-2.545.096-2.928-1.043-.434-1.017.199-2.29 1.264-2.61h.002Zm-5.023.1c.949-.44 2.226-.071 2.684.883.539.93.122 2.223-.841 2.703-.966.54-2.328.13-2.794-.866-.524-.965-.06-2.276.951-2.72m-5.028 1.69c.073-.6.649-.993 1.23-1.034a1.348 1.348 0 0 1 1.197 1.178c-.042.62-.527 1.221-1.193 1.219-.732.061-1.375-.656-1.234-1.363m14.852-.902c.752-.43 1.796.195 1.763 1.045.051.9-1.104 1.534-1.852 1.006-.778-.44-.718-1.677.09-2.051m-11.867 3.172c.877-.238 1.884.17 2.314.964.472.8.28 1.911-.454 2.5-.941.86-2.675.514-3.176-.66-.576-1.077.124-2.52 1.315-2.805l.001.001Zm9.525-.004c.854-.24 1.857.082 2.317.848.607.876.317 2.184-.586 2.748-.949.655-2.415.312-2.937-.714-.633-1.06.004-2.559 1.206-2.882m-15.18.998c.759-.282 1.6.542 1.292 1.283-.187.674-1.153.924-1.652.426-.585-.467-.369-1.505.36-1.709m20.582 1.075a1.15 1.15 0 0 1 1.084-1.201c.52.082 1.025.495.984 1.052.048.735-.852 1.234-1.49.89-.299-.15-.451-.452-.578-.74Zm-24.315-.71c.456-.196 1.021.193.917.693-.025.565-.873.783-1.184.31-.275-.328-.11-.833.267-1.003Zm28.805-.011c.321-.225.838-.064.965.306.216.404-.18.957-.642.89-.65.058-.858-.915-.323-1.196Zm-16.936 2.712c1.201-.306 2.494.68 2.502 1.898.077 1.23-1.196 2.32-2.425 2.038-.952-.152-1.699-1.054-1.667-1.998-.003-.905.69-1.746 1.59-1.938m4.76 0c1.22-.336 2.55.667 2.531 1.913.065 1.207-1.169 2.262-2.373 2.021-1.134-.143-1.97-1.368-1.654-2.451.16-.72.773-1.307 1.496-1.485v.001Zm-9.18.748c.845-.141 1.637.784 1.294 1.573-.25.842-1.493 1.069-2.043.383-.643-.66-.162-1.865.75-1.956m13.961.038c.754-.311 1.678.33 1.62 1.134.03.884-1.111 1.495-1.847.978-.834-.464-.682-1.83.227-2.112m3.902 3.85c-.294-.54.241-1.257.853-1.157.302-.005.516.23.71.428.04.32.107.702-.164.949-.367.457-1.2.327-1.399-.22M10.224 27.75c.57-.373 1.391.184 1.262.839-.069.581-.811.913-1.3.583-.524-.299-.505-1.15.038-1.422m11.265 1.214c.747-.323 1.698.316 1.627 1.125.055.894-1.12 1.512-1.85.976-.812-.46-.676-1.816.223-2.1m-5.216 1.197c.635-.329 1.487.24 1.43.94.019.575-.55 1.065-1.128.98-.477-.01-.788-.432-.942-.833.008-.435.191-.92.64-1.086v-.001Zm10.568.01c.654-.398 1.584.174 1.522.922.016.784-1.034 1.284-1.643.77-.589-.403-.517-1.37.12-1.691Zm1.838 4.47c-.291-.432.051-.953.523-1.052.38.075.783.357.702.789-.055.587-.927.766-1.225.264v-.001Zm-14.59-.376c.115-.344.396-.683.807-.594.598.041.776.93.252 1.203-.47.312-1.018-.115-1.059-.609Zm7.04.395c.114-.509.781-.755 1.221-.486.291.124.377.443.451.715-.04.142-.076.284-.11.427-.18.209-.412.42-.712.412-.557.065-1.06-.555-.851-1.068h.001Z"/></g><defs><clipPath id="a"><path fill="#fff" d="M0 0h44v44H0z"/></clipPath><filter id="b" width="32.984" height="30.234" x="5.5" y="7.563" color-interpolation-filters="sRGB" filterUnits="userSpaceOnUse"><feFlood flood-opacity="0" result="BackgroundImageFix"/><feColorMatrix in="SourceAlpha" result="hardAlpha" values="0 0 0 0 0 0 0 0 0 0 0 0 0 0 0 0 0 0 127 0"/><feOffset dy=".688"/><feGaussianBlur stdDeviation=".688"/><feColorMatrix values="0 0 0 0 0 0 0 0 0 0 0 0 0 0 0 0 0 0 0.204257 0"/><feBlend in2="BackgroundImageFix" result="effect1_dropShadow_2531_15119"/><feBlend in="SourceGraphic" in2="effect1_dropShadow_2531_15119" result="shape"/></filter></defs></svg>