<svg xmlns="http://www.w3.org/2000/svg" fill="none" viewBox="0 0 44 44"><rect width="44" height="44" fill="#213147" rx="22"/><path fill="#213147" d="M10.445 16.555v10.89c0 .694.378 1.337.988 1.684l9.576 5.446a2.006 2.006 0 0 0 1.975 0l9.572-5.447c.611-.346.988-.988.988-1.682V16.554c0-.695-.377-1.338-.988-1.684l-9.572-5.446a2.006 2.006 0 0 0-1.975 0l-9.576 5.448a1.93 1.93 0 0 0-.988 1.683Z"/><path fill="#12AAFF" d="M24.089 24.113 22.723 27.8a.462.462 0 0 0 0 .317l2.35 6.345 2.716-1.544-3.26-8.806a.234.234 0 0 0-.354-.111.235.235 0 0 0-.086.11Zm2.738-6.202a.235.235 0 0 0-.44 0l-1.366 3.688a.464.464 0 0 0 0 .316l3.849 10.39 2.717-1.546-4.76-12.848Z"/><path fill="#9DCCED" d="M21.997 9.834c.068.002.134.02.194.05l10.363 5.893a.385.385 0 0 1 .194.33V27.89a.378.378 0 0 1-.194.33l-10.363 5.893a.387.387 0 0 1-.194.05.464.464 0 0 1-.193-.05l-10.363-5.887a.386.386 0 0 1-.194-.332V16.11c0-.137.074-.262.194-.332l10.363-5.892a.402.402 0 0 1 .193-.052Zm0-1.72c-.367 0-.738.092-1.068.282l-10.36 5.89A2.1 2.1 0 0 0 9.5 16.11v11.783c0 .751.407 1.447 1.07 1.822l10.36 5.894a2.176 2.176 0 0 0 2.14 0l10.36-5.892a2.1 2.1 0 0 0 1.07-1.824V16.11a2.1 2.1 0 0 0-1.07-1.824l-10.364-5.89a2.16 2.16 0 0 0-1.07-.283Z"/><path fill="#213147" d="m15.148 32.321.953-2.571 1.92 1.571-1.795 1.614-1.078-.614Z"/><path fill="#fff" d="M21.127 15.266h-2.626a.462.462 0 0 0-.44.304L12.43 30.773l2.717 1.545 6.2-16.742a.232.232 0 0 0-.113-.284.232.232 0 0 0-.107-.026Zm4.597 0h-2.628a.463.463 0 0 0-.438.304l-6.43 17.36 2.717 1.544 6.999-18.898a.232.232 0 0 0-.22-.31Z"/></svg>