<svg xmlns="http://www.w3.org/2000/svg" fill="none" color="currentColor" viewBox="0 0 24 24"><path stroke="currentColor" stroke-linecap="round" stroke-linejoin="round" stroke-width="2" d="M2 12c0-3.771 0-5.657 1.172-6.828C4.343 4 6.229 4 10 4h4c3.771 0 5.657 0 6.828 1.172C22 6.343 22 8.229 22 12c0 3.771 0 5.657-1.172 6.828C19.657 20 17.771 20 14 20h-4c-3.771 0-5.657 0-6.828-1.172C2 17.657 2 15.771 2 12Z"/><path stroke="currentColor" stroke-linecap="round" stroke-linejoin="round" stroke-width="1.5" d="M9 12.5a2.5 2.5 0 1 1 0-5 2.5 2.5 0 0 1 0 5Zm0 0a4 4 0 0 1 4 4m-4-4a4 4 0 0 0-4 4M15 9h4M15 12h4"/></svg>