<svg xmlns="http://www.w3.org/2000/svg" fill="none" color="currentColor" viewBox="0 0 24 24"><path stroke="currentColor" stroke-width="2" d="M13 7a4 4 0 1 1-8 0 4 4 0 0 1 8 0Z"/><path stroke="currentColor" stroke-linecap="round" stroke-linejoin="round" stroke-width="2" d="M15 11a4 4 0 0 0 0-8"/><path stroke="currentColor" stroke-linejoin="round" stroke-width="2" d="M11 14H7a5 5 0 0 0-5 5 2 2 0 0 0 2 2h10a2 2 0 0 0 2-2 5 5 0 0 0-5-5Z"/><path stroke="currentColor" stroke-linecap="round" stroke-linejoin="round" stroke-width="2" d="M17 14a5 5 0 0 1 5 5 2 2 0 0 1-2 2h-1.5"/></svg>