<svg xmlns="http://www.w3.org/2000/svg" fill="none" color="currentColor" viewBox="0 0 24 24"><path fill="currentColor" d="M12.053 1.75c2.192 0 3.914 0 5.258.18 1.377.186 2.47.573 3.328 1.431.858.859 1.245 1.95 1.43 3.327.181 1.345.181 3.067.181 5.26v.105c0 2.192 0 3.914-.18 5.258-.186 1.377-.573 2.47-1.431 3.328-.858.858-1.95 1.245-3.328 1.43-1.344.181-3.066.181-5.258.181h-.106c-2.192 0-3.914 0-5.259-.18-1.376-.186-2.468-.573-3.327-1.431-.858-.858-1.245-1.95-1.43-3.328-.181-1.344-.181-3.066-.181-5.258v-.106c0-2.192 0-3.914.18-5.259.186-1.376.573-2.468 1.431-3.327.859-.858 1.95-1.245 3.327-1.43 1.345-.181 3.067-.181 5.26-.181h.105Zm-.054 4.75a1 1 0 0 0-1 1v7.049a19.81 19.81 0 0 1-.64-.704 33.844 33.844 0 0 1-1.095-1.335c-.143-.183-.38-.497-.46-.603a1.001 1.001 0 0 0-1.61 1.186c.086.113.344.455.494.647.299.383.712.898 1.16 1.415.446.513.947 1.051 1.42 1.469.235.208.487.408.74.56.226.137.581.316.991.316l.151-.008c.346-.036.643-.188.84-.307.253-.153.505-.353.74-.561.473-.418.974-.956 1.42-1.469a35.838 35.838 0 0 0 1.655-2.062 1 1 0 0 0-1.612-1.186c-.08.106-.316.42-.459.603a33.78 33.78 0 0 1-1.094 1.335c-.214.246-.431.484-.641.704V7.5a1 1 0 0 0-1-1Z"/></svg>