<svg xmlns="http://www.w3.org/2000/svg" fill="none" viewBox="0 0 20 20"><g fill="currentColor" clip-path="url(#a)"><path fill-rule="evenodd" d="M9.377 6.043v5.415H.629c.016-1.78.1-3.103.189-4.029a2.643 2.643 0 0 1 2.18-2.364c-.19-.412-.288-.861-.288-1.315C2.71 2.037 4.02.625 5.835.625c1.506 0 2.708.876 3.503 1.842.258.313.48.643.664.97.184-.327.406-.657.663-.97.796-.966 1.998-1.842 3.504-1.842 1.816 0 3.125 1.412 3.125 3.125 0 .454-.099.903-.29 1.315a2.643 2.643 0 0 1 2.18 2.364c.09.926.174 2.248.19 4.03h-8.747V6.042c-.417-.002-.834-.002-1.25 0ZM3.96 3.75c0-1.048.775-1.875 1.875-1.875.994 0 1.876.582 2.538 1.387.307.372.561.784.756 1.225.044.101.084.203.12.307a86.762 86.762 0 0 0-4.857.153A1.867 1.867 0 0 1 3.96 3.75Zm11.652 1.197c-1.2-.075-2.806-.14-4.857-.153.033-.096.073-.198.12-.306.194-.442.449-.854.755-1.226.663-.805 1.544-1.387 2.538-1.387 1.1 0 1.876.827 1.876 1.875 0 .437-.153.86-.432 1.197Z" clip-rule="evenodd"/><path d="M9.376 12.707v6.665c-2.838-.015-4.837-.129-6.1-.235-1.3-.108-2.331-1.082-2.458-2.4a46.88 46.88 0 0 1-.19-4.03h8.748Zm1.25 0v6.665c2.839-.015 4.837-.129 6.1-.235 1.3-.108 2.332-1.082 2.458-2.4.09-.926.173-2.249.19-4.03h-8.748Z"/></g><defs><clipPath id="a"><path fill="#fff" d="M0 0h20v20H0z"/></clipPath></defs></svg>