<svg xmlns="http://www.w3.org/2000/svg" viewBox="0 0 48 48"><path fill="currentColor" d="M36 16h4a2 2 0 0 1 2 2v6a2 2 0 0 1-2 2h-2v16a2 2 0 0 1-2 2H12a2 2 0 0 1-2-2V26H8a2 2 0 0 1-2-2v-6a2 2 0 0 1 2-2h4c-1.27-1.52-2-3.44-2-5.5C10 6.36 13.36 3 17.5 3c2.85 0 5.33 1.58 6.5 4c1.17-2.42 3.65-4 6.5-4C34.64 3 38 6.36 38 10.5c0 2.06-.73 3.98-2 5.5M17.5 7a3.5 3.5 0 0 0 0 7H22v-3.5A3.5 3.5 0 0 0 17.5 7M26 14h4.5a3.5 3.5 0 0 0 0-7A3.5 3.5 0 0 0 26 10.5zm-4 26V26h-8v14zm12 0V26h-8v14zm6-20v-2H26v2zm-18 0v-2H8v2z"/></svg>
