<svg xmlns="http://www.w3.org/2000/svg" fill="none" viewBox="0 0 20 20"><g clip-path="url(#a)"><path fill="currentColor" fill-rule="evenodd" d="M10.057.625A9.431 9.431 0 0 1 16.6 16.848c.296.385.578.779.847 1.182.194.294.203.63.058.898a.875.875 0 0 1-.78.447c-1.277.01-2.716-.142-3.885-.306a1.409 1.409 0 0 1-1.214-1.446c.042-1.187.143-2.639.377-3.9a.87.87 0 0 1 .569-.685.852.852 0 0 1 .864.21c.418.4.82.814 1.205 1.245a6.38 6.38 0 0 0-4.585-10.815 6.38 6.38 0 0 0-4.283 11.107c.487.441.67 1.192.289 1.775l-.301.463c-.374.572-1.165.758-1.716.302a9.432 9.432 0 0 1 6.01-16.7m.987 5.625a1.041 1.041 0 1 0-2.084 0v3.32l-2.195 2.194a1.041 1.041 0 1 0 1.474 1.473l2.5-2.5a1.044 1.044 0 0 0 .305-.737V6.25Z" clip-rule="evenodd"/></g><defs><clipPath id="a"><path fill="#fff" d="M0 0h20v20H0z"/></clipPath></defs></svg>