<svg xmlns="http://www.w3.org/2000/svg" fill="none" viewBox="0 0 119 24"><rect width="24" height="24" fill="#FD4B2B" rx="6"/><path fill="#fff" d="M5.218 18V5.4h4.518l2.502 10.98h.324V5.4h2.34V18h-4.518L7.882 7.02h-.324V18h-2.34Zm11.23 0V9.072h2.269V18h-2.268Zm1.135-9.972a1.49 1.49 0 0 1-1.044-.396c-.276-.264-.414-.612-.414-1.044 0-.432.138-.78.414-1.044a1.49 1.49 0 0 1 1.044-.396c.42 0 .768.132 1.044.396s.414.612.414 1.044c0 .432-.138.78-.414 1.044-.276.264-.624.396-1.044.396Z"/><path fill="#000" d="M31.553 18V6.8h4.016l2.224 9.76h.288V6.8h2.08V18h-4.016L33.92 8.24h-.288V18h-2.08Zm13.758.224c-.789 0-1.488-.165-2.096-.496a3.686 3.686 0 0 1-1.408-1.424c-.33-.619-.496-1.344-.496-2.176v-.192c0-.832.166-1.552.496-2.16a3.446 3.446 0 0 1 1.392-1.424c.598-.341 1.291-.512 2.08-.512.779 0 1.456.176 2.032.528a3.506 3.506 0 0 1 1.344 1.44c.32.608.48 1.317.48 2.128v.688H43.36c.022.544.224.987.608 1.328.384.341.854.512 1.408.512.566 0 .982-.123 1.248-.368a2.59 2.59 0 0 0 .608-.816l1.648.864c-.149.277-.368.581-.656.912-.277.32-.65.597-1.12.832-.469.224-1.066.336-1.792.336Zm-1.936-5.104h3.712c-.042-.459-.229-.827-.56-1.104-.32-.277-.741-.416-1.264-.416-.544 0-.976.139-1.296.416-.32.277-.517.645-.592 1.104Zm9.379 5.104a3.824 3.824 0 0 1-1.52-.288 2.608 2.608 0 0 1-1.072-.864c-.256-.384-.384-.848-.384-1.392 0-.544.128-.997.384-1.36.266-.373.629-.65 1.088-.832.469-.192 1.002-.288 1.6-.288h2.176v-.448c0-.373-.118-.677-.352-.912-.235-.245-.608-.368-1.12-.368-.502 0-.875.117-1.12.352a1.588 1.588 0 0 0-.48.88l-1.856-.624c.128-.405.33-.773.608-1.104a3.024 3.024 0 0 1 1.136-.816c.48-.213 1.061-.32 1.744-.32 1.045 0 1.872.261 2.48.784.608.523.912 1.28.912 2.272v2.96c0 .32.149.48.448.48h.64V18h-1.344c-.395 0-.72-.096-.976-.288a.912.912 0 0 1-.384-.768v-.016h-.304a2.203 2.203 0 0 1-.288.512c-.15.203-.384.384-.704.544-.32.16-.758.24-1.312.24Zm.352-1.632c.565 0 1.024-.155 1.376-.464.362-.32.544-.741.544-1.264v-.16h-2.032c-.374 0-.667.08-.88.24-.214.16-.32.384-.32.672 0 .288.112.523.336.704.224.181.549.272.976.272ZM58.9 18v-7.936h1.984v.896h.288c.117-.32.309-.555.576-.704.277-.15.597-.224.96-.224h.96v1.792h-.992c-.512 0-.934.139-1.264.416-.331.267-.496.683-.496 1.248V18H58.9Zm9.062 0V6.8h2.112V18h-2.112Zm3.643 0v-7.936h1.984v1.04h.288c.128-.277.368-.539.72-.784.352-.256.885-.384 1.6-.384.618 0 1.157.144 1.616.432.469.277.832.667 1.088 1.168.256.49.384 1.067.384 1.728V18h-2.016v-4.576c0-.597-.15-1.045-.448-1.344-.288-.299-.704-.448-1.248-.448-.619 0-1.099.208-1.44.624-.342.405-.512.976-.512 1.712V18h-2.016Zm12.04 0c-.522 0-.949-.16-1.28-.48-.32-.33-.48-.768-.48-1.312v-4.48h-1.984v-1.664h1.984V7.6h2.016v2.464h2.176v1.664h-2.176v4.128c0 .32.15.48.448.48h1.536V18h-2.24Zm6.952.224c-.79 0-1.488-.165-2.096-.496a3.687 3.687 0 0 1-1.408-1.424c-.33-.619-.496-1.344-.496-2.176v-.192c0-.832.165-1.552.496-2.16a3.446 3.446 0 0 1 1.392-1.424c.597-.341 1.29-.512 2.08-.512.779 0 1.456.176 2.032.528a3.506 3.506 0 0 1 1.344 1.44c.32.608.48 1.317.48 2.128v.688h-5.776c.021.544.224.987.608 1.328.384.341.853.512 1.408.512.565 0 .981-.123 1.248-.368s.47-.517.608-.816l1.648.864c-.15.277-.368.581-.656.912-.277.32-.65.597-1.12.832-.47.224-1.067.336-1.792.336ZM88.66 13.12h3.712c-.043-.459-.23-.827-.56-1.104-.32-.277-.741-.416-1.264-.416-.544 0-.976.139-1.296.416-.32.277-.517.645-.592 1.104ZM95.575 18v-7.936h1.984v1.04h.288c.128-.277.368-.539.72-.784.352-.256.886-.384 1.6-.384.619 0 1.158.144 1.616.432.47.277.832.667 1.088 1.168.256.49.384 1.067.384 1.728V18h-2.016v-4.576c0-.597-.149-1.045-.448-1.344-.288-.299-.704-.448-1.248-.448-.618 0-1.098.208-1.44.624-.341.405-.512.976-.512 1.712V18h-2.016Zm12.041 0c-.523 0-.949-.16-1.28-.48-.32-.33-.48-.768-.48-1.312v-4.48h-1.984v-1.664h1.984V7.6h2.016v2.464h2.176v1.664h-2.176v4.128c0 .32.149.48.448.48h1.536V18h-2.24Zm6.913.224c-1.035 0-1.883-.224-2.544-.672-.662-.448-1.062-1.088-1.2-1.92l1.856-.48c.074.373.197.667.368.88.181.213.4.368.656.464.266.085.554.128.864.128.469 0 .816-.08 1.04-.24.224-.17.336-.379.336-.624a.616.616 0 0 0-.32-.56c-.214-.139-.555-.25-1.024-.336l-.448-.08a8.478 8.478 0 0 1-1.52-.432c-.459-.192-.827-.453-1.104-.784-.278-.33-.416-.757-.416-1.28 0-.79.288-1.392.864-1.808.576-.427 1.333-.64 2.272-.64.885 0 1.621.197 2.208.592.586.395.97.912 1.152 1.552l-1.872.576c-.086-.405-.262-.693-.528-.864-.256-.17-.576-.256-.96-.256s-.678.07-.88.208a.608.608 0 0 0-.304.544c0 .256.106.448.32.576.213.117.501.208.864.272l.448.08c.597.107 1.136.25 1.616.432.49.17.874.421 1.152.752.288.32.432.757.432 1.312 0 .832-.304 1.477-.912 1.936-.598.448-1.403.672-2.416.672Z"/></svg>