<svg xmlns="http://www.w3.org/2000/svg" fill="none" viewBox="0 0 20 20"><g clip-path="url(#a)"><path fill="currentColor" fill-rule="evenodd" d="M9.999 1.874a8.125 8.125 0 0 0-8.125 8.125 8.125 8.125 0 0 0 8.125 8.125 8.125 8.125 0 0 0 8.125-8.125 8.125 8.125 0 0 0-8.125-8.125ZM.207 9.999C.207 4.59 4.591.207 9.999.207c5.408 0 9.791 4.384 9.791 9.792 0 5.408-4.383 9.791-9.791 9.791S.207 15.407.207 10Zm9.792-2.084a2.083 2.083 0 1 0 0 4.167 2.083 2.083 0 0 0 0-4.167ZM3.124 10a2.083 2.083 0 1 1 4.166 0 2.083 2.083 0 0 1-4.166 0ZM14.79 7.915a2.083 2.083 0 1 0 0 4.167 2.083 2.083 0 0 0 0-4.167Z" clip-rule="evenodd"/></g><defs><clipPath id="a"><path fill="#fff" d="M0 0h20v20H0z"/></clipPath></defs></svg>