<svg xmlns="http://www.w3.org/2000/svg" fill="none" viewBox="0 0 1080 1080"><path fill="#00EC97" d="M0 0h1080v1080H0z"/><path fill="#000" d="M773.425 243.38a63.231 63.231 0 0 0-53.881 30.119L595.538 457.606c-4.039 6.067-2.4 14.248 3.668 18.287a13.184 13.184 0 0 0 15.904-.98l122.062-105.871c2.028-1.825 5.155-1.639 6.98.389a5.05 5.05 0 0 1 1.268 3.363v331.471a4.934 4.934 0 0 1-4.952 4.935 4.876 4.876 0 0 1-3.786-1.775L367.707 265.758a63.312 63.312 0 0 0-48.237-22.378h-12.895c-34.902 0-63.195 28.293-63.195 63.195v466.85c0 34.902 28.293 63.195 63.195 63.195a63.232 63.232 0 0 0 53.881-30.119l124.006-184.107c4.039-6.067 2.4-14.248-3.668-18.287a13.184 13.184 0 0 0-15.904.98L342.828 710.958c-2.028 1.825-5.155 1.639-6.98-.389a4.95 4.95 0 0 1-1.251-3.363V375.651a4.934 4.934 0 0 1 4.952-4.936c1.454 0 2.857.643 3.786 1.775l368.924 441.752a63.312 63.312 0 0 0 48.237 22.378h12.896c34.901.017 63.211-28.259 63.245-63.161V306.575c0-34.902-28.293-63.195-63.195-63.195h-.017Z"/></svg>