<svg xmlns="http://www.w3.org/2000/svg" fill="none" viewBox="0 0 41 10"><g clip-path="url(#a)"><path fill="#171717" d="M16.953 1.417c-.758 0-1.309.179-1.777.592l-.826.717c-.07.055-.207.096-.303.013-.097-.082-.11-.193-.028-.303l.44-.661c.07-.097.015-.22-.11-.22h-1.06a.218.218 0 0 0-.22.22v6.45c0 .124.096.22.22.22h1.102c.124 0 .22-.096.22-.22V4.586c0-1.667 1.392-1.929 1.915-1.929 1.115 0 1.515.8 1.515 1.406v4.162c0 .124.096.22.22.22h1.102c.124 0 .22-.096.22-.22v-4.3c0-1.544-1.005-2.508-2.63-2.508Zm7.12-.028c-2.135 0-3.498 1.31-3.498 3.087v.979c0 1.874 1.363 3.156 3.498 3.156 1.887 0 3.21-.979 3.347-2.302.014-.138-.082-.234-.22-.234h-1.075a.207.207 0 0 0-.206.151c-.138.442-.785 1.103-1.846 1.103-1.06 0-2.052-.772-2.038-1.874l.014-1.227c.013-.923.978-1.557 2.024-1.557.95 0 1.873.538 1.97 1.42a.202.202 0 0 1-.163.213l-3.088.6a.282.282 0 0 0-.22.275v.014c0 .124.123.234.303.234h4.435a.22.22 0 0 0 .22-.22v-.869c0-1.64-1.419-2.949-3.457-2.949Zm7.686 0c-1.722 0-3.21 1.006-3.21 2.329 0 .11.097.193.22.193h1.116c.11 0 .193-.083.207-.193.11-.606.84-1.047 1.625-1.047.937 0 1.57.579 1.57 1.57v1.2c0 1.227-.909 1.847-2.038 1.847-.882 0-1.391-.331-1.391-.869 0-.468.248-.868 1.267-1.102l1.473-.4c.152-.041.207-.165.18-.303-.014-.11-.138-.166-.248-.166H31c-1.294 0-2.602.827-2.602 2.04v.193c0 1.24 1.17 1.888 2.506 1.888.854 0 1.584-.33 2.039-.717l.675-.579c.11-.096.22-.096.316 0 .083.083.055.207-.014.304l-.413.648c-.069.096-.014.22.11.22h.992c.124 0 .22-.097.22-.22V4.048c0-1.598-1.143-2.66-3.071-2.66Zm9.02.165h-1.542c-.537 0-1.06.331-1.432.648l-.606.524c-.07.055-.193.097-.276.028-.096-.07-.138-.207-.055-.318l.44-.661c.07-.097.015-.22-.11-.22h-1.032a.218.218 0 0 0-.22.22v6.45c0 .124.096.22.22.22h1.13c.123 0 .22-.096.22-.22V4.917c0-1.42.578-2.053 1.831-2.053h1.433c.124 0 .22-.097.22-.22v-.87a.218.218 0 0 0-.22-.22ZM8.93 0c-.37 0-.714.192-.908.508L5.932 3.61a.222.222 0 0 0 .33.292l2.056-1.785a.083.083 0 0 1 .14.063V7.77a.083.083 0 0 1-.148.053L2.094.377A1.064 1.064 0 0 0 1.282 0h-.217C.477 0 0 .477 0 1.065v7.87a1.065 1.065 0 0 0 1.972.557l2.09-3.103a.222.222 0 0 0-.33-.292L1.675 7.882a.083.083 0 0 1-.138-.063v-5.59a.083.083 0 0 1 .147-.052l6.215 7.446A1.067 1.067 0 0 0 8.71 10h.218c.588 0 1.064-.476 1.065-1.064v-7.87C9.994.475 9.517 0 8.929 0Z"/></g><defs><clipPath id="a"><path fill="#fff" d="M0 0h41v10H0z"/></clipPath></defs></svg>