<svg xmlns="http://www.w3.org/2000/svg" fill="none" viewBox="0 0 512 512"><rect width="512" height="512" fill="#FB4D01" rx="128"/><path fill="#F2F2F1" d="M374.461 105.525a32.066 32.066 0 0 0-27.337 15.287l-62.934 93.402c-2.047 3.087-1.218 7.236 1.852 9.286a6.701 6.701 0 0 0 8.064-.494l61.935-53.715a2.503 2.503 0 0 1 3.533.197 2.59 2.59 0 0 1 .633 1.704v168.183c0 1.383-1.145 2.495-2.534 2.495a2.503 2.503 0 0 1-1.924-.89L168.58 116.86a32.21 32.21 0 0 0-24.462-11.36h-6.554c-17.713 0-32.064 14.349-32.064 32.056v236.863c-.024 17.708 14.326 32.056 32.039 32.056a32.066 32.066 0 0 0 27.337-15.287l62.934-93.402c2.047-3.087 1.218-7.236-1.852-9.286a6.701 6.701 0 0 0-8.064.494l-61.935 53.715a2.503 2.503 0 0 1-3.533-.197 2.59 2.59 0 0 1-.633-1.704V172.575c0-1.383 1.145-2.494 2.534-2.494.731 0 1.437.321 1.924.889l187.145 224.17a32.21 32.21 0 0 0 24.462 11.36h6.554c17.713 0 32.064-14.324 32.088-32.031V137.581c.024-17.708-14.326-32.056-32.039-32.056Z"/></svg>