<svg xmlns="http://www.w3.org/2000/svg" fill="none" viewBox="0 0 44 44"><g clip-path="url(#a)"><path fill="#EF0027" d="M22 44c12.15 0 22-9.85 22-22S34.15 0 22 0 0 9.85 0 22s9.85 22 22 22Z"/><path fill="#fff" d="M30.157 13.629 10.312 9.977l10.444 26.279 14.551-17.73-5.15-4.897Zm-.32 1.608 3.037 2.886-8.303 1.503 5.266-4.389Zm-7.07 4.088-8.75-7.257L28.32 14.7l-5.553 4.625Zm-.623 1.284-1.427 11.798-7.693-19.364 9.12 7.566Zm1.32.626 9.195-1.664-10.546 12.847 1.351-11.183Z"/></g><defs><clipPath id="a"><path fill="#fff" d="M0 0h44v44H0z"/></clipPath></defs></svg>