<svg xmlns="http://www.w3.org/2000/svg" fill="none" viewBox="0 0 20 20"><g clip-path="url(#a)"><path fill="currentColor" fill-rule="evenodd" d="M11.483.982c1.1-.271 2.29.13 2.894 1.165.156.266.326.576.507.933-1.266-.084-3.144-.163-5.717-.163-1.452 0-2.682.025-3.706.062A42.058 42.058 0 0 1 11.483.981ZM3.357 19.204c1.24.086 3.145.171 5.81.171 2.664 0 4.569-.085 5.81-.171 1.365-.095 2.443-1.132 2.555-2.51.021-.262.042-.555.062-.879a46.561 46.561 0 0 1-3.09-.013c-1.516-.061-2.74-1.223-2.81-2.778-.016-.38-.027-.831-.027-1.357s.01-.976.028-1.357c.069-1.556 1.293-2.716 2.81-2.778a46.372 46.372 0 0 1 3.09-.014c-.02-.323-.042-.616-.063-.879-.112-1.377-1.19-2.415-2.556-2.51-1.24-.085-3.145-.17-5.81-.17-2.664 0-4.569.085-5.809.17C1.991 4.225.914 5.263.802 6.64.71 7.755.625 9.406.625 11.667c0 2.26.086 3.912.177 5.028.112 1.377 1.19 2.414 2.555 2.509Zm9.586-6.236c.04.888.724 1.549 1.611 1.584.452.019 1.014.032 1.696.032.682 0 1.244-.013 1.696-.032.887-.035 1.571-.696 1.61-1.584.017-.361.027-.793.027-1.301 0-.508-.01-.94-.026-1.301-.04-.888-.724-1.55-1.611-1.585a42.483 42.483 0 0 0-1.696-.03c-.682 0-1.244.012-1.696.03-.887.036-1.571.697-1.61 1.585-.017.36-.027.793-.027 1.3 0 .51.01.94.026 1.302Zm2.89-2.343a.625.625 0 0 1 .625.625v.834a.625.625 0 1 1-1.25 0v-.834a.625.625 0 0 1 .625-.625Z" clip-rule="evenodd"/></g><defs><clipPath id="a"><path fill="#fff" d="M0 0h20v20H0z"/></clipPath></defs></svg>