<svg xmlns="http://www.w3.org/2000/svg" fill="none" color="currentColor" viewBox="0 0 24 24"><path fill="currentColor" d="M13.39 1.75a2.36 2.36 0 0 1 2.36 2.36V6.5H3.58l8.857-4.55c.3-.132.624-.2.953-.2ZM15.065 7.75c1.362 0 2.462 0 3.327.116.9.121 1.657.38 2.26.983.601.602.86 1.36.982 2.26.116.864.116 1.963.116 3.326v1.13c0 1.362 0 2.462-.116 3.327-.121.9-.38 1.657-.983 2.26-.602.601-1.36.86-2.26.982-.864.116-1.963.116-3.326.116h-6.13c-1.363 0-2.462 0-3.327-.116-.9-.121-1.657-.38-2.26-.983-.601-.602-.86-1.36-.982-2.26-.116-.864-.116-1.963-.116-3.326V8.5l.004-.077A.75.75 0 0 1 3 7.75h12.065Zm2.435 6a1.25 1.25 0 1 0 0 2.5 1.25 1.25 0 0 0 0-2.5Z"/></svg>