<svg xmlns="http://www.w3.org/2000/svg" fill="none" viewBox="0 0 44 44"><g clip-path="url(#a)"><path fill="#F4B728" d="M22 44c12.15 0 22-9.85 22-22S34.15 0 22 0 0 9.85 0 22s9.85 22 22 22Z"/><path fill="#fff" d="M20.757 27.288h8.658v4.607h-5.328c.088 1.317.134 2.54.222 3.855h-4.484v-3.809h-5.33c0-1.503-.177-3.007.09-4.418.133-.752.932-1.41 1.42-2.068 1.689-2.11 3.391-4.21 5.107-6.298.667-.8 1.332-1.553 2.087-2.445h-8.305v-4.607h4.93V8.25h4.307v3.76h5.374c0 1.552.177 3.056-.09 4.467-.133.752-.932 1.41-1.464 2.068a634.456 634.456 0 0 1-5.107 6.298 50.858 50.858 0 0 1-2.087 2.445Z"/></g><defs><clipPath id="a"><path fill="#fff" d="M0 0h44v44H0z"/></clipPath></defs></svg>