<svg width="30" height="30" viewBox="0 0 30 30" fill="none" xmlns="http://www.w3.org/2000/svg">
<path d="M21.2096 3.00024H8.76519C8.17582 3.00024 7.61059 3.23437 7.19384 3.65112C6.7771 4.06787 6.54297 4.6331 6.54297 5.22247V9.22247C6.54383 9.56731 6.62452 9.90726 6.77874 10.2157C6.93296 10.5241 7.1565 10.7927 7.43186 11.0002L12.7652 15.0002L7.43186 19.0002C7.1565 19.2078 6.93296 19.4764 6.77874 19.7848C6.62452 20.0932 6.54383 20.4332 6.54297 20.778V24.778C6.54297 25.3674 6.7771 25.9326 7.19384 26.3494C7.61059 26.7661 8.17582 27.0002 8.76519 27.0002H21.2096C21.799 27.0002 22.3642 26.7661 22.781 26.3494C23.1977 25.9326 23.4319 25.3674 23.4319 24.778V20.818C23.4315 20.4738 23.3517 20.1343 23.1987 19.8259C23.0457 19.5176 22.8236 19.2487 22.5496 19.0402L17.1985 15.0002L22.5496 10.9558C22.8236 10.7473 23.0457 10.4785 23.1987 10.1701C23.3517 9.86177 23.4315 9.52226 23.4319 9.17802V5.22247C23.4319 4.6331 23.1977 4.06787 22.781 3.65112C22.3642 3.23437 21.799 3.00024 21.2096 3.00024ZM20.7652 5.66691V7.44469H9.20964V5.66691H20.7652ZM14.9874 13.3336L10.6907 10.1114H19.2463L14.9874 13.3336ZM20.7652 24.3336H9.20964V21.0002L14.9874 16.6669L20.7652 21.0369V24.3336Z" fill="#AB6400"/>
</svg>
