<svg xmlns="http://www.w3.org/2000/svg" viewBox="0 0 32 32" fill="none">
  <circle cx="16" cy="16" r="16" fill="#2D374B"/>
  <path fill="#28A0F0" d="M18.69 18.59l-1.48 4.07c-.04.11-.04.24 0 .35l2.57 7.05 2.95-1.7-3.54-9.72c-.08-.22-.4-.22-.5-.05zM21.66 12.75c-.08-.22-.4-.22-.48 0l-1.48 4.07c-.04.11-.04.24 0 .35l4.18 11.47 2.95-1.7-5.17-14.19z"/>
  <path fill="#fff" d="M16 5c-.4 0-.8.1-1.16.31l-8.16 4.71c-.72.42-1.16 1.19-1.16 2.01v9.44c0 .82.44 1.59 1.16 2.01l8.16 4.71c.36.21.76.31 1.16.31.4 0 .8-.1 1.16-.31l8.16-4.71c.72-.42 1.16-1.19 1.16-2.01v-9.44c0-.82-.44-1.59-1.16-2.01l-8.16-4.71c-.36-.21-.76-.31-1.16-.31zm0 1.9c.07 0 .15.02.21.06l8.16 4.71c.13.08.21.21.21.36v9.44c0 .15-.08.28-.21.36l-8.16 4.71c-.06.04-.14.06-.21.06-.07 0-.15-.02-.21-.06l-8.16-4.71c-.13-.08-.21-.21-.21-.36v-9.44c0-.15.08-.28.21-.36l8.16-4.71c.06-.04.14-.06.21-.06z"/>
  <path fill="#fff" d="M14.94 9.36h-2.87c-.21 0-.4.13-.48.33l-6.11 16.76 2.95 1.7 6.73-18.46c.06-.17-.06-.33-.22-.33zM19.93 9.36h-2.87c-.21 0-.4.13-.48.33l-6.98 19.14 2.95 1.7 7.6-20.84c.06-.17-.06-.33-.22-.33z"/>
</svg>
