<svg xmlns="http://www.w3.org/2000/svg" fill="none" viewBox="0 0 44 44"><g clip-path="url(#a)"><rect width="44" height="44" fill="#5DEB5A" rx="22"/><path fill="#fff" d="M21.94 11.16c1.018 0 1.933.565 2.388 1.475l7.506 15.013a2.654 2.654 0 0 1-.116 2.598 2.652 2.652 0 0 1-2.27 1.266H14.433c-.932 0-1.78-.474-2.27-1.267a2.65 2.65 0 0 1-.117-2.597l7.506-15.013a2.655 2.655 0 0 1 2.387-1.476Zm0-1.836a4.504 4.504 0 0 0-4.028 2.49l-7.507 15.014a4.504 4.504 0 0 0 4.029 6.518h15.014a4.503 4.503 0 0 0 4.028-6.518L25.97 11.814a4.504 4.504 0 0 0-4.029-2.49Z"/></g><defs><clipPath id="a"><rect width="44" height="44" fill="#fff" rx="22"/></clipPath></defs></svg>