<svg xmlns="http://www.w3.org/2000/svg" fill="none" viewBox="0 0 44 44"><rect width="44" height="44" fill="#00F" rx="22"/><g clip-path="url(#a)"><path fill="#fff" d="M10 11.896c0-.65 0-.974.123-1.224a1.2 1.2 0 0 1 .55-.55c.25-.122.574-.122 1.223-.122h20.208c.65 0 .974 0 1.224.122.24.118.433.31.55.55.122.25.122.575.122 1.224v20.208c0 .65 0 .974-.122 1.224-.117.24-.31.433-.55.55-.25.122-.575.122-1.224.122H11.896c-.65 0-.974 0-1.224-.122a1.2 1.2 0 0 1-.55-.55C10 33.078 10 32.753 10 32.104V11.896Z"/></g><defs><clipPath id="a"><path fill="#fff" d="M10 10h24v24H10z"/></clipPath></defs></svg>