<svg fill="none" height="463" viewBox="0 0 462 463" width="462" xmlns="http://www.w3.org/2000/svg"><path d="m230.8 462.3c127.412 0 230.7-103.288 230.7-230.7s-103.288-230.699976-230.7-230.699976-230.699902 103.287976-230.699902 230.699976 103.287902 230.7 230.699902 230.7z" fill="#f3ba2f"/><path clip-rule="evenodd" d="m290.633 256.133 34.8 34.7-94.6 94.5-94.5-94.5 34.8-34.7 59.7 59.7zm-59.8-59.8 35.3 35.3-35.3 35.3-35.2-35.2v-.1l6.2-6.2 3-3zm-119 .5 34.8 34.8-34.8 34.7-34.7996-34.8zm238 0 34.8 34.8-34.8 34.7-34.8-34.8zm-119-118.9996 94.5 94.4996-34.8 34.8-59.7-59.8-59.7 59.7-34.8-34.7z" fill="#131415" fill-rule="evenodd"/></svg>