<svg xmlns="http://www.w3.org/2000/svg" viewBox="0 0 32 32" fill="none">
  <circle cx="16" cy="16" r="16" fill="#f7931a"/>
  <path fill="#fff" d="M22.14 13.49c.31-2.08-1.27-3.2-3.44-3.95l.7-2.82-1.72-.43-.69 2.75c-.45-.11-.91-.22-1.37-.32l.69-2.76-1.71-.43-.7 2.82c-.37-.09-.74-.17-1.1-.26l-2.37-.59-.46 1.83s1.27.29 1.25.31c.7.17.82.63.8 1l-.8 3.21c.05.01.11.03.18.06l-.18-.05-1.12 4.5c-.09.21-.3.53-.79.41.02.02-1.25-.31-1.25-.31l-.85 1.96 2.24.56c.41.1.82.21 1.22.31l-.71 2.85 1.71.43.7-2.82c.47.13.92.24 1.37.36l-.7 2.81 1.72.43.71-2.84c2.93.55 5.13.33 6.06-2.32.75-2.13-.04-3.36-1.58-4.16 1.12-.26 1.97-1 2.19-2.52zm-3.93 5.51c-.53 2.13-4.12 0.98-5.29.69l.94-3.78c1.17.29 4.9.87 4.35 3.09zm.53-5.54c-.49 1.94-3.47.95-4.44.71l.86-3.43c.97.24 4.09.69 3.58 2.72z"/>
</svg>
