<svg xmlns="http://www.w3.org/2000/svg" viewBox="0 0 32 32" fill="none">
  <circle cx="16" cy="16" r="16" fill="#0033ad"/>
  <path fill="#fff" d="M14.22 15.68c-.06 1.15.82 2.13 1.97 2.19h.13c1.16 0 2.09-.93 2.08-2.09 0-1.16-.93-2.09-2.09-2.08-1.11 0-2.03.87-2.09 1.98zm-7.79-.54a.72.72 0 0 0-.71.64.72.72 0 0 0 .64.71.72.72 0 0 0 .71-.64.71.71 0 0 0-.64-.71zm7.64-11.57a.66.66 0 0 0-.97-.63.66.66 0 0 0 .3 1.25.66.66 0 0 0 .67-.62zm2.14 3.69a.87.87 0 0 0-.93-.77.87.87 0 1 0 .93.77zm-7.08 2.54a.97.97 0 0 0 1.19-.72.96.96 0 0 0-.72-1.19.97.97 0 0 0-1.19.72.97.97 0 0 0 .72 1.19zm1.27 5.02a1.11 1.11 0 0 0 .99-1.1 1.11 1.11 0 1 0-.99 1.1zm-1.23 7a.88.88 0 0 0 .38 1.16.88.88 0 0 0 1.16-.38.88.88 0 0 0-.38-1.16.87.87 0 0 0-1.16.38zm7.49 2.94a.96.96 0 0 0-.67.97c.04.51.5.89 1.01.85.51-.04.89-.5.85-1.01-.04-.51-.5-.89-1.01-.85a.83.83 0 0 0-.18.04zm-4.68-3.71a1.14 1.14 0 0 0-.6.21 1.14 1.14 0 0 0 1.4 1.8 1.14 1.14 0 0 0-.8-2.01zm6.38-5.47a1.11 1.11 0 0 0-.99 1.1 1.11 1.11 0 1 0 .99-1.1zm1.22-7a.88.88 0 0 0-.38-1.16.87.87 0 0 0-1.16.38.88.88 0 0 0 .38 1.16.87.87 0 0 0 1.16-.38zm3.41 1.07a.88.88 0 0 0-.42 1.15.88.88 0 1 0 .42-1.15zm1.44 5.71a1.02 1.02 0 0 0-.98 1.1c.03.57.51 1.07 1.1 1.09.57.01 1.06-.43 1.1-.99.03-.57-.42-1.07-.99-1.1-.08 0-.15 0-.23.03zm-1.4 7.03a.87.87 0 0 0 .38 1.16.87.87 0 0 0 1.16-.38.87.87 0 0 0-.38-1.16.88.88 0 0 0-1.16.38zm-7.49-2.94a.96.96 0 0 0 .67-.97.96.96 0 0 0-1.01-.85.96.96 0 0 0-.85 1.01c.04.51.5.89 1.01.85.06 0 .12-.01.18-.04zm4.68 3.71c.35-.46.26-1.13-.2-1.48a1.14 1.14 0 0 0-1.6.2 1.14 1.14 0 0 0 .2 1.6c.49.37 1.23.15 1.6-.32zm2.14-11.26a.97.97 0 0 0-.72 1.19c.11.57.61.88 1.07.76a.97.97 0 0 0 .72-1.18.97.97 0 0 0-1.07-.77zm-.68-2.77a.67.67 0 0 0 .93-.18.66.66 0 0 0-.18-.93.67.67 0 0 0-.93.18.66.66 0 0 0 .18.93zm2.64 11.99a.66.66 0 0 0-.63.97.66.66 0 1 0 .63-.97zm-5.64-9.7a1.15 1.15 0 0 0-.61 2.13c.62.29 1.38.02 1.67-.6a1.15 1.15 0 0 0-.6-1.52 1.05 1.05 0 0 0-.46-.01zm2.59 9.06a1.14 1.14 0 1 0 0 2.28 1.14 1.14 0 0 0 0-2.28zm-7.95 3.67a.87.87 0 0 0-.77-.93.87.87 0 1 0-.16 1.74.87.87 0 0 0 .93-.81zm-4.53-8.8a.96.96 0 1 0-.95 1.66.96.96 0 0 0 .95-1.66zm2.59-9.07a1.15 1.15 0 0 0-.49-.01 1.15 1.15 0 1 0 .49.01zm-2.57 9.05a1.14 1.14 0 1 0-.04 2.28 1.14 1.14 0 0 0 .04-2.28z"/>
</svg>
