<svg xmlns="http://www.w3.org/2000/svg" fill="none" viewBox="0 0 44 44"><rect width="44" height="44" fill="#00193C" rx="22"/><g fill="#fff" clip-path="url(#a)"><path d="M14.584 24.497a4.684 4.684 0 0 0 2.86-.975l-6.56-6.561a4.686 4.686 0 0 0 .84 6.57 4.748 4.748 0 0 0 2.86.966ZM34.099 19.813a4.683 4.683 0 0 0-.976-2.86l-6.56 6.56a4.676 4.676 0 0 0 7.536-3.7Z"/><path d="m37.4 12.672-2.9 2.902c2.337 2.8 1.967 6.973-.834 9.311a6.608 6.608 0 0 1-8.478 0L22 28.073l-3.18-3.18c-2.8 2.339-6.972 1.969-9.31-.832a6.607 6.607 0 0 1 0-8.479l-1.49-1.489-1.413-1.421A17.964 17.964 0 0 0 4 22c0 9.942 8.058 18 18 18s18-8.058 18-18c.008-3.289-.9-6.519-2.6-9.328Z"/><path d="M35.022 9.575c-6.856-7.191-18.244-7.46-25.436-.605-.21.202-.412.404-.606.605-.445.472-.866.96-1.261 1.472L22 25.338l14.282-14.29c-.387-.514-.816-1.002-1.261-1.473ZM22 6.354c4.206 0 8.125 1.623 11.07 4.584L22 22.008l-11.07-11.07c2.945-2.96 6.864-4.584 11.07-4.584Z"/></g><defs><clipPath id="a"><path fill="#fff" d="M4 4h36v36H4z"/></clipPath></defs></svg>