<svg xmlns="http://www.w3.org/2000/svg" viewBox="0 0 32 32" fill="none">
  <circle cx="16" cy="16" r="16" fill="#fff"/>
  <path fill="#000" d="M15.68 12.54h-.05l-.14.01h-.22l-.05.01-.09.02-.06.01-.09.04-.06.02-.08.04-.06.03-.07.05-.05.03-.06.05-.05.04-.05.05-.05.05-.04.05-.04.05-.04.06-.03.05-.03.06-.03.06-.02.06-.02.06-.01.06v.07l-.01.07v7.95l.01.08v.06l.01.07.02.06.02.06.03.06.03.06.03.06.04.05.04.06.04.05.05.05.05.05.05.04.06.05.06.04.06.04.06.03.07.04.06.02.07.03.07.02.07.02h.07l.07.01h.52l.07-.01.07-.01.07-.02.07-.02.07-.03.06-.02.07-.03.06-.04.06-.04.06-.04.05-.04.05-.05.05-.05.05-.05.04-.05.04-.06.04-.05.03-.06.03-.06.03-.06.02-.06.02-.06.01-.07.01-.06V12.9l-.01-.07v-.07l-.01-.06-.02-.06-.02-.06-.03-.06-.03-.05-.03-.06-.04-.06-.04-.05-.04-.05-.05-.05-.05-.05-.05-.04-.06-.05-.06-.04-.06-.03-.06-.03-.07-.03-.06-.02-.07-.03-.07-.02-.07-.01-.07-.01zm7.76-1.97h-.03l-.08.01-.05.01h-.03l-.08.03-.03.01-.08.04-.06.03-.06.05-.06.04-.06.06-.06.06c-.13.15-.65.62-.79.81l-.13.16-.14.19-.1.16-.07.1-.06.11-.04.06-.03.07-.02.03-.01.05-.01.02v.05l.01.02.02.03.03.03.05.02h.15l.06-.01h.02l.06-.02.15-.07.08-.02.09-.04.17-.06.16-.07.05-.02.16-.06.14-.06.4-.15.05-.02.03-.01.05-.01h.04l.04.01.02.02v4.12l-.01.05-.02.03-.03.02h-.04l-4.1-4.84-.06-.06-.04-.04-.03-.03-.03-.02-.04-.03-.05-.03-.05-.03-.05-.03-.05-.02-.06-.02-.06-.02-.06-.01h-.06l-.06-.01h-.16l-.06.01-.06.01-.05.02-.05.02-.05.02-.05.03-.04.03-.05.03-.04.04-.04.04-.03.04-.03.04-.03.05-.02.05-.02.05-.02.05-.01.06-.01.05v5.82l.01.05.01.06.02.05.02.05.02.05.03.04.03.05.04.04.04.04.04.04.05.03.05.03.05.02.05.02.05.02.06.01.06.01h.12l.05-.01.06-.01.05-.02.05-.02.05-.02.05-.03.04-.03.04-.04.04-.04.04-.04.03-.05.03-.04.02-.05.02-.05.02-.05.01-.06.01-.05v-4.48h.01l.02.03.05.06.12.15.26.3.05.07.17.19.03.04.03-.01h.03l.43-.16.17-.05.15-.05.09-.03.08-.03.07-.02.06-.02.06-.01h.05l.04-.01h.04l.03.01h.02l.01.02v.01l.01.06v3.77l-.01.06-.01.05-.02.05-.02.05-.03.05-.03.05-.03.04-.04.04-.04.04-.04.03-.05.03-.05.03-.05.03-.05.02-.05.02-.06.01-.06.01h-.12l-.06-.01-.06-.02-.05-.02-.05-.02-.03-.02-.02-.01-.01.01-.02.02-.29.31-.32.34-.09.1-.05.05-.05.07-.05.06-.04.07-.04.07-.03.07-.02.07-.02.04.01.02h.03l.05.01h.06l.06.01.06.01.06.01.05.02.06.01.05.02.1.05.05.03.04.03.05.04.04.04.04.04.04.05.03.04.03.05.02.05.02.05.02.06.01.06.01.06v.12l-.01.06-.01.05-.02.06-.02.05-.02.05-.03.05-.03.05-.04.04-.04.05-.04.04-.04.03-.05.04-.05.03-.05.02-.05.02-.06.02-.06.01-.06.01h-.12l-.06-.01-.06-.01-.05-.02-.06-.02-.05-.03-.05-.03-.05-.04-.04-.04-.04-.04-.04-.04-.03-.05-.03-.05-.03-.05-.02-.06-.02-.05-.01-.06-.01-.06v-.12l.01-.06.01-.06.02-.05.02-.06.03-.05.03-.05.03-.05.04-.05.04-.04.05-.04.04-.04.05-.03.05-.03.05-.02.06-.02.06-.02.06-.01h.06l.06-.01h.05l.02-.02v-.01l-.04-.06-.04-.06-.05-.07-.05-.07-.11-.13-.39-.42-.03-.03h-.01l-.02.01-.03.02-.06.02-.06.02-.05.01h-.06l-.06.01h-.12l-.06-.01-.06-.01-.06-.02-.06-.02-.05-.03-.05-.03-.05-.04-.05-.04-.04-.04-.04-.05-.04-.05-.03-.05-.03-.05-.02-.06-.02-.06-.01-.06-.01-.06v-5.94l.01-.06.01-.06.02-.06.02-.05.03-.06.03-.05.04-.05.04-.05.04-.04.05-.04.05-.04.05-.03.05-.03.06-.02.06-.02.06-.01.06-.01h.12l.06.01.06.01.06.02.06.02.05.03.05.03.05.04.05.04.04.04.04.05.04.05.03.05.03.06.02.05.02.06.01.06.01.06v4.36l.06-.07.02-.02.23-.24.23-.27.05-.05.33-.39.04-.05.2-.23.04-.04-.01-.02h-.03l-.06-.01-.06-.01-.06-.01-.05-.02-.06-.02-.05-.02-.05-.03-.05-.03-.05-.04-.04-.04-.04-.04-.04-.05-.04-.05-.03-.05-.03-.05-.02-.06-.02-.06-.01-.06-.01-.06v-.12l.01-.06.01-.06.02-.06.02-.05.03-.06.03-.05.04-.05.04-.05.04-.04.04-.04.05-.04.05-.03.05-.03.05-.02.06-.02.06-.01.06-.01h.13l.06.01.06.02.05.02.06.02.05.03.05.03.05.04.04.04.04.04.04.05.04.05.03.05.03.06.02.05.02.06.01.06.01.06v.12l-.01.06-.01.06-.02.06-.02.05-.03.05-.03.06-.04.05-.04.05-.04.04-.04.04-.05.04-.05.03-.05.03-.06.02-.05.02-.06.02h-.06l-.06.01h-.04l.01.04.02.03.05.07.04.05.05.06.23.27.05.05.1.13.11.12.03.04.02-.01.14-.06.05-.02.06-.02.06-.01h.06l.06-.01h.12l.06.01.06.02.06.02.05.02.05.03.05.03.05.04.05.04.04.04.04.05.04.05.03.05.03.06.02.05.02.06.01.06.01.06v5.95l-.01.06-.01.06-.02.06-.02.05-.03.05-.03.05-.04.05-.04.05-.04.04-.04.04-.05.04-.05.03-.05.03-.06.02-.06.02-.06.01-.06.01h-.12z"/>
</svg>
