<svg xmlns="http://www.w3.org/2000/svg" fill="none" viewBox="0 0 44 44"><rect width="44" height="44" fill="#FB4D01" rx="22"/><path fill="#F2F2F1" d="M32.155 9.104c-.956 0-1.842.495-2.343 1.31l-5.394 8.006a.575.575 0 0 0 .85.753l5.308-4.604a.214.214 0 0 1 .358.163v14.416a.216.216 0 0 1-.218.214.215.215 0 0 1-.165-.076l-16.043-19.21a2.76 2.76 0 0 0-2.096-.974h-.562a2.747 2.747 0 0 0-2.748 2.747v20.303a2.749 2.749 0 0 0 5.09 1.437l5.393-8.006a.575.575 0 0 0-.85-.753l-5.308 4.604a.214.214 0 0 1-.357-.163V14.85c0-.119.098-.214.217-.214.062 0 .123.028.165.076l16.04 19.215c.523.616 1.291.971 2.097.974h.562a2.749 2.749 0 0 0 2.75-2.746V11.851a2.745 2.745 0 0 0-2.746-2.747Z"/></svg>