<svg xmlns="http://www.w3.org/2000/svg" fill="none" viewBox="0 0 44 44"><rect width="44" height="44" fill="#fff" rx="22"/><path fill="#000" fill-opacity=".5" d="M31.703 25.903v7.79h2.125a.52.52 0 0 0 .517-.52v-6.75a.52.52 0 0 0-.517-.52h-2.125Zm0-15.594v7.79h2.125a.52.52 0 0 0 .517-.52v-6.751a.52.52 0 0 0-.517-.52h-2.125Z"/><path fill="#000" fill-opacity=".3" d="M35.68 10.309v7.79h.795a.52.52 0 0 0 .517-.52v-6.751a.52.52 0 0 0-.515-.52h-.797Zm.005 15.594v7.79h.793a.52.52 0 0 0 .52-.52v-6.75a.52.52 0 0 0-.52-.52h-.793Z"/><path fill="#000" d="M22.054 18.115h-6.72a.516.516 0 0 0-.518.514v6.67c0 .283.233.514.518.514h6.717a.517.517 0 0 0 .517-.514v-6.67a.516.516 0 0 0-.516-.514m-7.774-7.806h-6.75a.52.52 0 0 0-.52.519v6.75c0 .288.232.52.52.52h6.75a.52.52 0 0 0 .52-.52v-6.75a.52.52 0 0 0-.52-.52Zm15.573 0h-6.75a.52.52 0 0 0-.52.519v6.75c0 .288.235.52.52.52h6.75a.52.52 0 0 0 .52-.52v-6.75a.52.52 0 0 0-.52-.52ZM14.278 25.886h-6.75a.52.52 0 0 0-.52.52v6.75c0 .287.232.517.52.517h6.75a.52.52 0 0 0 .52-.517v-6.75a.52.52 0 0 0-.52-.52Zm15.573 0h-6.75a.52.52 0 0 0-.52.52v6.75c0 .287.235.517.52.517h6.75a.52.52 0 0 0 .52-.517v-6.75a.52.52 0 0 0-.52-.52Z"/></svg>