<svg
  width="40"
  height="40"
  viewBox="116.705 -0.0858818 32.388 32.0765818"
  fill="none"
  xmlns="http://www.w3.org/2000/svg"
>
  <path d="M131.156 0.702185C131.614 0.248371 132.223 0 132.869 0C133.516 0 134.125 0.248371 134.582 0.705251C135.145 1.26332 135.395 2.05136 135.25 2.85473C135.173 3.28402 134.969 3.68877 134.672 4.01073C134.533 4.16098 134.381 4.2959 134.211 4.40322C133.815 4.66386 133.352 4.80491 132.869 4.80491C132.387 4.80491 131.92 4.66386 131.527 4.40322C131.357 4.29283 131.206 4.16098 131.067 4.00767C130.77 3.68264 130.566 3.28095 130.489 2.8486C130.343 2.04523 130.594 1.26025 131.159 0.702185H131.156Z" fill="black"/>
  <path d="M134.582 31.2854C134.125 31.7393 133.516 31.9907 132.869 31.9907C132.223 31.9907 131.614 31.7423 131.156 31.2854C130.699 30.8316 130.448 30.2276 130.448 29.5867C130.448 28.9459 130.699 28.3418 131.156 27.888C131.614 27.4342 132.223 27.1858 132.869 27.1858C133.516 27.1858 134.125 27.4342 134.582 27.888C135.04 28.3418 135.29 28.9459 135.29 29.5867C135.29 30.2276 135.04 30.8316 134.582 31.2854Z" fill="black"/>
  <path d="M116.739 15.9938C116.739 15.353 116.989 14.7489 117.447 14.2951C117.904 13.8413 118.514 13.5898 119.16 13.5898C119.806 13.5898 120.415 13.8413 120.873 14.2951C121.33 14.7489 121.581 15.353 121.581 15.9938C121.581 16.1533 121.565 16.3127 121.534 16.466C121.442 16.9291 121.216 17.3522 120.873 17.6926C120.415 18.1464 119.806 18.3948 119.16 18.3948C118.514 18.3948 117.904 18.1464 117.447 17.6926C116.989 17.2388 116.739 16.6347 116.739 15.9938Z" fill="black"/>
  <path d="M148.289 17.6957C147.343 18.634 145.806 18.634 144.863 17.6957C144.405 17.2419 144.155 16.6378 144.155 15.997C144.155 15.8375 144.17 15.6781 144.201 15.5248C144.223 15.4082 144.257 15.2948 144.297 15.1875C144.415 14.8563 144.609 14.5558 144.866 14.3013C145.339 13.8322 145.961 13.5991 146.579 13.5991C147.197 13.5991 147.819 13.8322 148.292 14.3013C148.75 14.7551 149 15.3592 149 16C149 16.6409 148.75 17.245 148.292 17.6988H148.289V17.6957Z" fill="black"/>
  <path d="M140.766 20.2989C138.367 17.9195 138.367 14.0651 140.766 11.6887L148.032 4.48292C148.923 3.59982 149.077 2.17705 148.304 1.1897C147.371 -0.00615776 145.627 -0.0858818 144.585 0.947464L137.26 8.21155C134.861 10.591 130.974 10.591 128.578 8.21155L121.312 1.00572C120.421 0.122627 118.987 -0.0306882 117.991 0.735889C116.785 1.66191 116.705 3.39131 117.747 4.42466L125.072 11.6887C127.471 14.0682 127.471 17.9226 125.072 20.2989L117.824 27.4864C116.884 28.4185 116.76 29.9364 117.639 30.9237C118.133 31.4818 118.82 31.7577 119.503 31.7577C120.137 31.7577 120.771 31.5186 121.256 31.0372L128.581 23.7731C130.98 21.3936 134.867 21.3936 137.263 23.7731L144.588 31.0372C145.073 31.5186 145.707 31.7577 146.341 31.7577C147.04 31.7577 147.735 31.4664 148.236 30.8869C149.093 29.8873 148.904 28.3633 147.967 27.4342L140.769 20.2959L140.766 20.2989Z" fill="#725BF6"/>
</svg>
