<svg xmlns="http://www.w3.org/2000/svg" fill="none" viewBox="0 0 44 44"><rect width="44" height="44" fill="#6E54FF" rx="22"/><g clip-path="url(#a)"><path fill="#fff" d="M21.918 6C17.322 6 6 17.35 6 21.958c0 4.609 11.322 15.959 15.918 15.959 4.597 0 15.919-11.35 15.919-15.959C37.837 17.35 26.515 6 21.918 6Zm-2.48 25.084c-1.939-.53-7.15-9.67-6.622-11.613.528-1.943 9.645-7.168 11.583-6.638 1.939.53 7.15 9.669 6.622 11.612-.528 1.944-9.645 7.168-11.583 6.639Z"/></g><defs><clipPath id="a"><path fill="#fff" d="M6 6h32v32H6z"/></clipPath></defs></svg>