<svg xmlns="http://www.w3.org/2000/svg" viewBox="0 0 32 32" fill="none">
  <circle cx="16" cy="16" r="16" fill="#fff"/>
  <path fill="#000" d="M21.44 8.09c-.55 0-1.06.28-1.35.74l-3.1 4.54a.16.16 0 0 0 .09.24c.13.08.28.08.4-.02l3.05-2.61a.06.06 0 0 1 .1.04v8.18c0 .07-.06.12-.13.12a.12.12 0 0 1-.09-.04L11.18 9.95a1.29 1.29 0 0 0-1.21-.55h-.32c-.88 0-1.58.7-1.58 1.56v11.51c0 .86.7 1.56 1.58 1.56.55 0 1.06-.28 1.35-.74l3.1-4.54a.16.16 0 0 0-.09-.24.22.22 0 0 0-.4.02l-3.05 2.61a.06.06 0 0 1-.1-.04v-8.18c0-.07.06-.12.13-.12.03 0 .07.01.09.04l9.23 10.89c.3.35.74.55 1.21.55h.32c.88 0 1.58-.7 1.58-1.56V9.65c0-.86-.7-1.56-1.58-1.56Z"/>
</svg>
