<svg xmlns="http://www.w3.org/2000/svg" fill="none" viewBox="0 0 44 44"><g clip-path="url(#a)"><path fill="#000" d="M0 0h44v44H0V0Z"/><path fill="#fff" d="M31.509 9.916a2.576 2.576 0 0 0-2.196 1.227l-5.052 7.5a.537.537 0 0 0 .798.706l4.973-4.313a.202.202 0 0 1 .335.152v13.505a.202.202 0 0 1-.355.129L14.979 10.828a2.58 2.58 0 0 0-1.965-.912h-.525a2.575 2.575 0 0 0-2.575 2.575v19.02a2.575 2.575 0 0 0 4.77 1.347l5.052-7.5a.537.537 0 0 0-.797-.706l-4.973 4.313a.201.201 0 0 1-.336-.152V15.305a.2.2 0 0 1 .202-.201.2.2 0 0 1 .154.072l15.03 17.997a2.58 2.58 0 0 0 1.966.912h.525a2.576 2.576 0 0 0 2.577-2.573V12.49a2.575 2.575 0 0 0-2.575-2.575Z"/></g><defs><clipPath id="a"><rect width="44" height="44" fill="#fff" rx="22"/></clipPath></defs></svg>