<svg xmlns="http://www.w3.org/2000/svg" viewBox="0 0 32 32" fill="none">
  <circle cx="16" cy="16" r="16" fill="#374151"/>
  <path fill="#fff" d="M22.17 7.21c-.66 0-1.27.34-1.62.89l-3.72 5.45a.19.19 0 0 0 .11.29c.15.1.34.09.48-.03l3.66-3.13a.07.07 0 0 1 .12.05v9.81a.15.15 0 0 1-.15.15.15.15 0 0 1-.11-.05l-11.07-13.07a1.55 1.55 0 0 0-1.45-.66h-.39c-1.05 0-1.9.84-1.9 1.87v13.81c0 1.03.85 1.87 1.9 1.87.66 0 1.27-.34 1.62-.89l3.72-5.45a.19.19 0 0 0-.11-.29.26.26 0 0 0-.48.03l-3.66 3.13a.07.07 0 0 1-.12-.05V11.13c0-.08.07-.15.15-.15.04 0 .09.02.11.05l11.07 13.07c.36.42.89.66 1.45.66h.39c1.05 0 1.9-.84 1.9-1.87V9.08c0-1.03-.85-1.87-1.9-1.87Z"/>
</svg>
