<svg xmlns="http://www.w3.org/2000/svg" fill="none" viewBox="0 0 44 44"><g clip-path="url(#a)"><path fill="#6F41D8" d="M22 44c12.15 0 22-9.85 22-22S34.15 0 22 0 0 9.85 0 22s9.85 22 22 22Z"/><path fill="#fff" d="M29.002 17.453c-.508-.296-1.166-.296-1.725 0l-3.958 2.274-2.688 1.482-3.959 2.273c-.507.297-1.166.297-1.724 0l-3.146-1.779c-.508-.296-.862-.839-.862-1.433v-3.509c0-.592.303-1.135.862-1.432l3.094-1.73c.508-.297 1.168-.297 1.726 0l3.094 1.73c.509.296.864.84.864 1.432v2.274l2.688-1.533V15.23a1.595 1.595 0 0 0-.862-1.433l-5.734-3.262c-.507-.297-1.166-.297-1.724 0l-5.836 3.262a1.594 1.594 0 0 0-.862 1.432v6.573c0 .594.304 1.137.862 1.434l5.836 3.262c.507.295 1.167.295 1.724 0l3.959-2.225 2.688-1.532 3.958-2.223c.508-.297 1.166-.297 1.725 0l3.095 1.73c.508.295.862.838.862 1.432v3.51c0 .592-.303 1.135-.862 1.432l-3.094 1.78c-.509.296-1.169.296-1.726 0l-3.095-1.73c-.508-.297-.863-.84-.863-1.433v-2.274l-2.688 1.533v2.272c0 .593.303 1.138.862 1.433l5.835 3.262c.508.297 1.166.297 1.724 0l5.836-3.262c.507-.295.862-.838.862-1.433v-6.572a1.595 1.595 0 0 0-.862-1.433l-5.885-3.312h-.001Z"/></g><defs><clipPath id="a"><path fill="#fff" d="M0 0h44v44H0z"/></clipPath></defs></svg>