<svg xmlns="http://www.w3.org/2000/svg" fill="none" viewBox="0 0 44 44"><rect width="44" height="44" fill="#000" rx="22"/><path fill="url(#a)" d="M30.196 16.764a.792.792 0 0 1-.526.208H11.24c-.654 0-.983-.747-.531-1.185l3.027-2.919a.767.767 0 0 1 .524-.216h18.5c.661 0 .984.754.524 1.195l-3.088 2.917Z"/><path fill="url(#b)" d="M30.196 31.147a.792.792 0 0 1-.526.202H11.24c-.654 0-.983-.741-.531-1.18l3.027-2.926a.766.766 0 0 1 .524-.208h18.5c.661 0 .984.749.524 1.186l-3.088 2.926Z"/><path fill="url(#c)" d="M30.196 20.05a.792.792 0 0 0-.526-.202H11.24c-.654 0-.983.74-.531 1.179l3.027 2.926a.79.79 0 0 0 .524.208h18.5c.661 0 .984-.748.524-1.185l-3.088-2.927Z"/><defs><linearGradient id="a" x1="10.501" x2="34.088" y1="76.996" y2="76.779" gradientUnits="userSpaceOnUse"><stop stop-color="#599DB0"/><stop offset="1" stop-color="#47F8C3"/></linearGradient><linearGradient id="b" x1="10.501" x2="33.937" y1="18.382" y2="18.202" gradientUnits="userSpaceOnUse"><stop stop-color="#C44FE2"/><stop offset="1" stop-color="#73B0D0"/></linearGradient><linearGradient id="c" x1="11.823" x2="32.611" y1="22.005" y2="22.005" gradientUnits="userSpaceOnUse"><stop stop-color="#778CBF"/><stop offset="1" stop-color="#5DCDC9"/></linearGradient></defs></svg>