<svg xmlns="http://www.w3.org/2000/svg" viewBox="0 0 32 32" fill="none">
  <circle cx="16" cy="16" r="16" fill="#000"/>
  <defs>
    <linearGradient id="solana-gradient" x1="7" y1="24" x2="25" y2="8" gradientUnits="userSpaceOnUse">
      <stop offset="0%" stop-color="#9945ff"/>
      <stop offset="50%" stop-color="#43b4ca"/>
      <stop offset="100%" stop-color="#19fb9b"/>
    </linearGradient>
  </defs>
  <path fill="url(#solana-gradient)" d="M9.38 19.91l2.1-2.19c.06-.07.15-.11.24-.11h12.85c.15 0 .23.18.12.29l-2.1 2.19c-.07.07-.15.11-.24.11H9.5c-.15 0-.23-.18-.12-.29zm2.1-5.57c.07-.07.15-.11.24-.11h12.85c.15 0 .23.18.12.29l-2.1 2.19c-.07.07-.15.11-.24.11H9.5c-.15 0-.23-.18-.12-.29l2.1-2.19zm10.15-2.45H8.78c-.15 0-.23-.18-.12-.29l2.1-2.19c.07-.07.15-.11.24-.11h12.85c.15 0 .23.18.12.29l-2.1 2.19c-.06.07-.15.11-.24.11z"/>
</svg>
