<svg xmlns="http://www.w3.org/2000/svg" fill="none" viewBox="0 0 44 44"><g clip-path="url(#a)"><path fill="#000" d="M22 0a22 22 0 1 0 0 44 22 22 0 0 0 0-44ZM6.985 25.282a1.376 1.376 0 0 1 .733-1.834l2.824-1.173A11.475 11.475 0 0 1 22 10.542a11.73 11.73 0 0 1 3.3.458 1.38 1.38 0 1 1-.807 2.64A8.8 8.8 0 0 0 22 13.292a8.726 8.726 0 0 0-8.672 7.865l20.974-8.672a1.374 1.374 0 1 1 1.063 2.53l-26.583 11c-.17.07-.35.107-.532.11a1.375 1.375 0 0 1-1.265-.843Zm29.333-4.767-2.823 1.173A11.478 11.478 0 0 1 22 33.458 10.998 10.998 0 0 1 18.993 33a1.375 1.375 0 1 1 .715-2.658 8.616 8.616 0 0 0 2.292.311 8.727 8.727 0 0 0 8.672-7.865L9.698 31.515c-.168.07-.349.107-.531.11a1.375 1.375 0 0 1-.532-2.64l26.583-11a1.375 1.375 0 1 1 1.064 2.53h.036Z"/></g><defs><clipPath id="a"><path fill="#fff" d="M0 0h44v44H0z"/></clipPath></defs></svg>