<svg xmlns="http://www.w3.org/2000/svg" fill="none" viewBox="0 0 40 40"><rect width="40" height="40" fill="#171717" rx="20"/><path fill="#fff" d="M13.826 20.85a6.7 6.7 0 0 1 .774-4.077 6.4 6.4 0 0 1 2.255-2.374 6.04 6.04 0 0 1 3.088-.892 6.029 6.029 0 0 1 3.105.825l1.426-.758a7.35 7.35 0 0 0-7.933-.648 7.75 7.75 0 0 0-3.035 2.928 8.2 8.2 0 0 0-1.1 4.753c.022.283-.039.567-.173.817-.134.249-.335.45-.579.58L11 22.35v1.622l18-9.566v-1.62L13.826 20.85ZM29 16.03l-14.21 7.547L11 25.59v1.62l15.178-8.064c.035.283.053.568.053.855a6.7 6.7 0 0 1-.827 3.232 6.4 6.4 0 0 1-2.258 2.375c-.931.57-2 .879-3.092.89a6.03 6.03 0 0 1-3.107-.83l-.076.042-1.345.715a7.43 7.43 0 0 0 3.878 1.49 7.35 7.35 0 0 0 4.054-.841 7.75 7.75 0 0 0 3.035-2.925 8.2 8.2 0 0 0 1.1-4.76c-.02-.282.04-.565.174-.815a1.4 1.4 0 0 1 .578-.58l.655-.347V16.03Z"/></svg>