<svg xmlns="http://www.w3.org/2000/svg" fill="none" viewBox="0 0 44 44"><rect width="44" height="44" fill="#2A90FF" rx="22"/><g clip-path="url(#a)"><path fill="#fff" fill-rule="evenodd" d="M30.387 19.179c1.458 1.741 2.33 3.944 2.33 6.339 0 2.395-.898 4.665-2.395 6.416l-.13.151-.034-.192a8.97 8.97 0 0 0-.103-.493c-.75-3.132-3.193-5.818-7.214-7.993-2.715-1.465-4.27-3.228-4.678-5.232-.263-1.296-.067-2.598.311-3.713.379-1.114.942-2.048 1.42-2.61l1.565-1.818a.709.709 0 0 1 1.063 0l7.866 9.145h-.001Zm2.474-1.817L22.376 5.174a.518.518 0 0 0-.775 0L11.118 17.362l-.034.04C9.155 19.68 8 22.573 8 25.723 8 33.054 14.263 39 21.988 39s13.989-5.945 13.989-13.279c0-3.15-1.155-6.042-3.084-8.317l-.034-.04.002-.002ZM13.627 19.14l.937-1.091.028.201c.022.16.05.32.082.48.607 3.028 2.775 5.551 6.398 7.505 3.15 1.705 4.984 3.665 5.512 5.814.22.896.26 1.779.163 2.55l-.006.049-.045.02a11.168 11.168 0 0 1-4.71 1.032c-5.924 0-10.727-4.559-10.727-10.183 0-2.415.886-4.633 2.365-6.38l.003.003Z" clip-rule="evenodd"/></g><defs><clipPath id="a"><path fill="#fff" d="M8 5h28v34H8z"/></clipPath></defs></svg>