<svg xmlns="http://www.w3.org/2000/svg" fill="none" viewBox="0 0 40 40"><rect width="40" height="40" fill="#EF4444" rx="20"/><path fill="#fff" fill-rule="evenodd" d="M11.158 9.716a.665.665 0 0 1 .644-.198l13.887 3.4a.582.582 0 0 1 .23.107l2.826 2.061a.661.661 0 0 1 .157.902l-9.72 14.223a.658.658 0 0 1-1.165-.152l-6.992-19.681a.665.665 0 0 1 .132-.66m2.291 3.55 4.854 13.664.797-7.08-5.65-6.584Zm6.951 6.81-.81 7.205 6.863-10.045-6.053 2.84Zm6.672-4.584-4.423 2.076 2.964-3.14 1.46 1.064Zm-2.795-1.567-10.795-2.642 6.329 7.371 4.466-4.73Z" clip-rule="evenodd"/></svg>