<svg xmlns="http://www.w3.org/2000/svg" fill="none" viewBox="0 0 44 44"><rect width="44" height="44" fill="#111012" rx="22"/><path fill="#fff" d="M12.821 10.935h.619V9.367h-.619a5.05 5.05 0 0 0-1.911.374 4.994 4.994 0 0 0-1.62 1.067c-.465.457-.832 1-1.083 1.597a4.858 4.858 0 0 0-.38 1.885v3.572a2.94 2.94 0 0 1-.816 2.035A3.023 3.023 0 0 1 5 20.824l.044.784-.044.785a3.023 3.023 0 0 1 2.011.927 2.94 2.94 0 0 1 .817 2.035v4.117a5.117 5.117 0 0 0 1.523 3.645 5.265 5.265 0 0 0 3.691 1.517v-1.568c-.96-.001-1.882-.378-2.561-1.047a3.549 3.549 0 0 1-1.062-2.526v-4.138c0-.739-.183-1.467-.533-2.12a4.546 4.546 0 0 0-1.478-1.627 4.575 4.575 0 0 0 1.475-1.628c.35-.653.534-1.38.536-2.118V14.29a3.346 3.346 0 0 1 1-2.368 3.443 3.443 0 0 1 2.402-.987ZM31.205 10.935h-.62V9.367h.62a5.02 5.02 0 0 1 3.519 1.447 4.88 4.88 0 0 1 1.452 3.476v3.572a2.94 2.94 0 0 0 .816 2.035c.526.551 1.246.883 2.012.927l-.045.784.044.785a3.023 3.023 0 0 0-2.01.927 2.94 2.94 0 0 0-.817 2.035v4.117a5.117 5.117 0 0 1-1.524 3.645 5.265 5.265 0 0 1-3.69 1.517v-1.568c.96-.001 1.882-.378 2.56-1.047a3.549 3.549 0 0 0 1.063-2.526v-4.138c0-.739.182-1.467.532-2.12a4.547 4.547 0 0 1 1.478-1.627 4.575 4.575 0 0 1-1.474-1.628 4.5 4.5 0 0 1-.536-2.118V14.29a3.294 3.294 0 0 0-.252-1.281 3.334 3.334 0 0 0-.732-1.088 3.424 3.424 0 0 0-2.397-.985ZM27.793 15.684h2.364l-4.927 4.552a4.847 4.847 0 0 1-3.226 1.225 4.847 4.847 0 0 1-3.226-1.225l-4.926-4.552h2.364l3.733 3.441a3.047 3.047 0 0 0 2.044.785c.757 0 1.486-.28 2.044-.785l3.756-3.441ZM16.192 28.32h-2.364l4.949-4.575a4.799 4.799 0 0 1 3.226-1.241c1.195 0 2.346.443 3.225 1.241l4.95 4.575h-2.365l-3.756-3.486a3.047 3.047 0 0 0-2.043-.784c-.757 0-1.486.28-2.044.784l-3.778 3.486Z"/></svg>