<svg xmlns="http://www.w3.org/2000/svg" viewBox="0 0 32 32" fill="none">
  <circle cx="16" cy="16" r="16" fill="#fff"/>
  <path fill="#000" d="M10.45 9.73h.78V7.73h-.78c-2.5 0-4.54 2.06-4.54 4.54v3.3A2.73 2.73 0 0 1 3.37 18.3l.04.72-.04.72a2.73 2.73 0 0 1 2.57 2.73v3.8c0 2.64 2.12 4.76 4.74 4.76v-1.45a3.3 3.3 0 0 1-3.3-3.29v-3.82a4.18 4.18 0 0 0-1.83-3.46 4.2 4.2 0 0 0 1.83-3.46v-3.31c0-1.71 1.36-3.1 3.1-3.1zm18.2 7.85a2.73 2.73 0 0 0-2.57-2.73v-3.3c0-2.48-2.02-4.54-4.52-4.54h-.78v2h.78c1.72 0 3.1 1.38 3.1 3.09v3.31a4.18 4.18 0 0 0 1.83 3.46 4.2 4.2 0 0 0-1.83 3.46v3.82a3.3 3.3 0 0 1-3.3 3.29v1.45c2.62 0 4.74-2.12 4.74-4.76v-3.8a2.73 2.73 0 0 1 2.57-2.73l-.04-.72.04-.72zM21.14 11l3.02 2.83c-2.52 2.36-6.5 2.36-9.01 0l-3.02-2.83h3.02l2.29 2.14a3.86 3.86 0 0 0 5.23 0l2.3-2.14h-3.83zm-3.83 7.88l3.02-2.83a6.16 6.16 0 0 1 8.26 0l3.17 2.97h-3.02l-2.4-2.24a3.86 3.86 0 0 0-5.22 0l-2.42 2.26h-3.83l2.44-2.16z"/>
</svg>
