<svg width="152" height="32" viewBox="0 0 152 32" fill="none" xmlns="http://www.w3.org/2000/svg">
<path d="M135.886 10.383H127.123V5.62056H150.7V10.383H141.937V26.1006H135.886V10.383Z" fill="#FFDCC9"/>
<path d="M118.237 5.62056H124.289V26.1006H118.237V5.62056Z" fill="#FFDCC9"/>
<path d="M111.897 15.5964C114.123 16.2114 115.679 17.6988 115.679 20.5591C115.679 24.8782 112.296 26.48 107.229 26.48H93V6H106.858C111.568 6 114.865 7.11553 114.865 11.2487C114.865 13.5656 113.609 14.9815 111.897 15.5964ZM106.002 10.4478H98.9516V14.1234H106.316C107.872 14.1234 108.757 13.68 108.757 12.2784C108.757 10.7768 107.715 10.4478 106.002 10.4478ZM106.673 22.0322C108.457 22.0322 109.57 21.6603 109.57 20.0729C109.57 18.5712 108.557 18.1135 106.844 18.1135H98.9516V22.0322H106.673Z" fill="#FFDCC9"/>
<path d="M83.7894 26.1006L81.9483 22.0961H71.2298L69.3887 26.1006H63.1089L73.1138 5.62056H80.307L90.3262 26.1006H83.7894ZM73.2137 17.8199H79.9645L76.5962 10.4974L73.2137 17.8199Z" fill="#FFDCC9"/>
<path d="M57.7387 15.6746C59.8082 16.2753 61.1069 17.8342 61.1069 20.5086V26.1006H55.0555V20.7803C55.0555 18.964 54.1563 18.206 52.201 18.206H44.5368V26.1006H38.4854V5.62056H52.7291C57.3391 5.62056 60.8786 6.77899 60.8786 11.1696C60.8786 13.701 59.5941 15.1026 57.7387 15.6746ZM52.1154 13.9155C53.7567 13.9155 54.7415 13.558 54.7415 12.042C54.7415 10.4688 53.6854 10.1685 51.9441 10.1685H44.5368V13.9155H52.1154Z" fill="#FFDCC9"/>
<path d="M23.4395 1.79319C23.5891 1.54752 23.9451 1.54752 24.0948 1.79319L32.6658 15.864C32.7407 15.987 32.7407 16.1417 32.6658 16.2648L24.0948 30.3355C23.9451 30.5812 23.5891 30.5812 23.4395 30.3355L14.8685 16.2648C14.7935 16.1417 14.7935 15.987 14.8685 15.864L23.4395 1.79319Z" fill="url(#paint0_linear_6444_18910)"/>
<path d="M23.2764 8.28721C23.5011 7.90426 24.0332 7.90426 24.2579 8.28722L28.7645 15.9674C28.8779 16.1606 28.8779 16.4041 28.7645 16.5973L24.2579 24.2775C24.0332 24.6605 23.5011 24.6605 23.2764 24.2775L18.7698 16.5973C18.6565 16.4041 18.6565 16.1606 18.7698 15.9674L23.2764 8.28721Z" fill="#FFDCC9"/>
<path d="M10.0044 1.79319C10.1541 1.54752 10.5101 1.54752 10.6597 1.79319L19.2307 15.864C19.3057 15.987 19.3057 16.1417 19.2307 16.2648L10.6597 30.3355C10.5101 30.5812 10.1541 30.5812 10.0044 30.3355L1.43341 16.2648C1.35846 16.1417 1.35846 15.987 1.43341 15.864L10.0044 1.79319Z" fill="#FFDCC9"/>
<path d="M9.84135 8.28853C10.0661 7.90558 10.5982 7.90558 10.8229 8.28854L15.3294 15.9687C15.4428 16.162 15.4428 16.4054 15.3294 16.5986L10.8229 24.2788C10.5982 24.6618 10.0661 24.6618 9.84135 24.2788L5.33479 16.5986C5.22141 16.4054 5.22141 16.162 5.33479 15.9687L9.84135 8.28853Z" fill="url(#paint1_linear_6444_18910)"/>
<defs>
<linearGradient id="paint0_linear_6444_18910" x1="23.7275" y1="10.905" x2="23.7673" y2="21.8341" gradientUnits="userSpaceOnUse">
<stop offset="0.110577" stop-color="#FE7109"/>
<stop offset="1" stop-color="#A1371E"/>
</linearGradient>
<linearGradient id="paint1_linear_6444_18910" x1="10.3097" y1="13.3276" x2="10.3326" y2="19.5895" gradientUnits="userSpaceOnUse">
<stop offset="0.110577" stop-color="#FE7109"/>
<stop offset="1" stop-color="#A1371E"/>
</linearGradient>
</defs>
</svg>
