<svg xmlns="http://www.w3.org/2000/svg" fill="none" viewBox="0 0 40 40"><rect width="40" height="40" fill="#FFEDE6" rx="20"/><path fill="#FF5C16" d="m27.821 27.918-3.877-1.131-2.924 1.712h-2.04l-2.926-1.712-3.875 1.13L11 24.02l1.179-4.327L11 16.034l1.179-4.534 6.056 3.544h3.53l6.056-3.544L29 16.034l-1.179 3.658L29 24.02l-1.179 3.898Z"/><path fill="#FF5C16" d="m12.18 11.5 6.055 3.547-.24 2.434L12.18 11.5Zm3.875 12.52 2.665 1.99-2.665.777V24.02Zm2.452-3.286-.512-3.251-3.278 2.21h-.002v.001l.01 2.275 1.33-1.235h2.452ZM27.82 11.5l-6.056 3.547.24 2.434L27.82 11.5Zm-3.875 12.52-2.665 1.99 2.665.777V24.02Zm1.339-4.326-3.28-2.21-.511 3.25h2.45l1.33 1.236.01-2.276Z"/><path fill="#E34807" d="m16.054 26.788-3.875 1.13L11 24.023h5.054v2.765Zm2.452-6.054.74 4.7-1.026-2.614-3.497-.85 1.33-1.236h2.453Zm5.44 6.054 3.875 1.13L29 24.023h-5.055l.001 2.765Zm-2.452-6.054-.74 4.7 1.026-2.614 3.497-.85-1.331-1.236h-2.452Z"/><path fill="#FF8D5D" d="m11 24.019 1.179-4.328h2.535l.01 2.276 3.496.85 1.026 2.613-.527.576-2.665-1.989H11v.002Zm18 0-1.179-4.328h-2.535l-.01 2.276-3.496.85-1.026 2.613.527.576 2.665-1.989H29v.002Zm-7.235-8.976h-3.53l-.24 2.435 1.251 7.95h1.508l1.252-7.95-.241-2.435Z"/><path fill="#661800" d="M12.179 11.5 11 16.034l1.179 3.658h2.535l3.28-2.211-5.815-5.981Zm5.594 10.177h-1.148l-.626.6 2.222.54-.448-1.14ZM27.821 11.5 29 16.034l-1.179 3.658h-2.535l-3.28-2.211 5.815-5.981Zm-5.593 10.177h1.15l.626.6-2.224.541.448-1.141Zm-1.209 5.271.262-.94-.527-.575h-1.509l-.527.575.262.94"/><path fill="#C0C4CD" d="M21.02 26.95V28.5h-2.04V26.95h2.04Z"/><path fill="#E7EBF6" d="m16.055 26.786 2.927 1.714v-1.552l-.262-.94-2.665.778Zm7.89 0L21.02 28.5v-1.552l.262-.94 2.663.777Z"/></svg>