<svg xmlns="http://www.w3.org/2000/svg" fill="none" viewBox="0 0 40 40"><rect width="40" height="40" fill="#171717" rx="20"/><path fill="#fff" d="m25.426 11.92-3.761 5.58c-.257.385.244.835.604.52l3.279-3.214c.096-.084.238-.026.238.116v10.06c0 .135-.18.193-.258.097L14.754 11.682A1.85 1.85 0 0 0 13.295 11C12.138 11 11 11.585 11 12.922v14.15a1.922 1.922 0 0 0 3.555 1.002l3.754-5.58c.257-.385-.238-.835-.598-.52l-3.259 3.278c-.096.084-.238.026-.238-.115V15.102c0-.142.18-.193.257-.097L25.226 28.32c.36.443.9.681 1.46.681 1.163 0 2.314-.579 2.314-1.923v-14.15a1.93 1.93 0 0 0-3.574-1.002v-.006Z"/></svg>