<svg width="36" height="36" viewBox="0 0 36 36" fill="none" xmlns="http://www.w3.org/2000/svg">
  <rect width="36" height="36" rx="8" fill="#160B45"/>
  <path d="M18 8C12.477 8 8 12.477 8 18C8 23.523 12.477 28 18 28C23.523 28 28 23.523 28 18C28 12.477 23.523 8 18 8ZM18 10C22.418 10 26 13.582 26 18C26 22.418 22.418 26 18 26C13.582 26 10 22.418 10 18C10 13.582 13.582 10 18 10Z" fill="#8B5CF6"/>
  <circle cx="18" cy="18" r="5" fill="#8B5CF6"/>
  <path d="M15 15L21 21M21 15L15 21" stroke="#160B45" stroke-width="2" stroke-linecap="round"/>
</svg>
