<svg xmlns="http://www.w3.org/2000/svg" fill="none" viewBox="0 0 40 40"><rect width="40" height="40" fill="#171717" rx="20"/><path fill="url(#a)" d="M26.413 15.902a.62.62 0 0 1-.411.163H11.58c-.512 0-.77-.585-.416-.928l2.369-2.284a.6.6 0 0 1 .41-.17H28.42c.517 0 .77.59.41.936l-2.417 2.283Z"/><path fill="url(#b)" d="M26.413 27.16a.62.62 0 0 1-.411.157H11.58c-.512 0-.77-.58-.416-.923l2.369-2.29a.6.6 0 0 1 .41-.163H28.42c.517 0 .77.586.41.928l-2.417 2.29Z"/><path fill="url(#c)" d="M26.413 18.474a.62.62 0 0 0-.411-.158H11.58c-.512 0-.77.58-.416.923l2.369 2.29c.11.103.257.16.41.163H28.42c.517 0 .77-.586.41-.928l-2.417-2.29Z"/><defs><linearGradient id="a" x1="11.001" x2="29.459" y1="63.041" y2="62.871" gradientUnits="userSpaceOnUse"><stop stop-color="#599DB0"/><stop offset="1" stop-color="#47F8C3"/></linearGradient><linearGradient id="b" x1="11.001" x2="29.341" y1="17.169" y2="17.028" gradientUnits="userSpaceOnUse"><stop stop-color="#C44FE2"/><stop offset="1" stop-color="#73B0D0"/></linearGradient><linearGradient id="c" x1="12.036" x2="28.303" y1="20.004" y2="20.004" gradientUnits="userSpaceOnUse"><stop stop-color="#778CBF"/><stop offset="1" stop-color="#5DCDC9"/></linearGradient></defs></svg>